<mxfile host="Electron" modified="2024-04-11T15:49:34.981Z" agent="Mozilla/5.0 (Windows NT 10.0; Win64; x64) AppleWebKit/537.36 (KHTML, like Gecko) draw.io/24.0.4 Chrome/120.0.6099.109 Electron/28.1.0 Safari/537.36" etag="jbvSs5Qss_kI_Ema-Pz-" version="24.0.4" type="device">
  <diagram id="2psnPZudSZ1pEpwzcyfM" name="Pagina-1">
    <mxGraphModel dx="728" dy="346" grid="1" gridSize="10" guides="1" tooltips="1" connect="1" arrows="1" fold="1" page="1" pageScale="1" pageWidth="827" pageHeight="1169" math="0" shadow="0">
      <root>
        <mxCell id="0" />
        <mxCell id="1" parent="0" />
        <mxCell id="3KIS9S7qjUf6mMkr2eS_-108" value="" style="ellipse;whiteSpace=wrap;html=1;aspect=fixed;" parent="1" vertex="1">
          <mxGeometry x="770" y="4160" width="40" height="40" as="geometry" />
        </mxCell>
        <mxCell id="3KIS9S7qjUf6mMkr2eS_-78" value="" style="rounded=0;whiteSpace=wrap;html=1;fillColor=#fff2cc;strokeColor=#d6b656;" parent="1" vertex="1">
          <mxGeometry x="320" y="2790" width="390" height="110" as="geometry" />
        </mxCell>
        <mxCell id="3KIS9S7qjUf6mMkr2eS_-77" value="" style="rounded=0;whiteSpace=wrap;html=1;fillColor=#fff2cc;strokeColor=#d6b656;" parent="1" vertex="1">
          <mxGeometry x="320" y="2680" width="390" height="110" as="geometry" />
        </mxCell>
        <mxCell id="3KIS9S7qjUf6mMkr2eS_-41" value="Instagram" style="rounded=0;whiteSpace=wrap;html=1;fillColor=#f8cecc;strokeColor=#b85450;" parent="1" vertex="1">
          <mxGeometry x="440" y="460" width="120" height="60" as="geometry" />
        </mxCell>
        <mxCell id="3KIS9S7qjUf6mMkr2eS_-1" value="Netflix" style="rounded=0;whiteSpace=wrap;html=1;fillColor=#f8cecc;strokeColor=#b85450;" parent="1" vertex="1">
          <mxGeometry x="440" y="100" width="120" height="60" as="geometry" />
        </mxCell>
        <mxCell id="3KIS9S7qjUf6mMkr2eS_-2" value="4" style="rounded=0;whiteSpace=wrap;html=1;fillColor=#fff2cc;strokeColor=#d6b656;" parent="1" vertex="1">
          <mxGeometry x="440" y="160" width="120" height="60" as="geometry" />
        </mxCell>
        <mxCell id="3KIS9S7qjUf6mMkr2eS_-3" value="Instagram" style="rounded=0;whiteSpace=wrap;html=1;fillColor=#f8cecc;strokeColor=#b85450;" parent="1" vertex="1">
          <mxGeometry x="440" y="220" width="120" height="60" as="geometry" />
        </mxCell>
        <mxCell id="3KIS9S7qjUf6mMkr2eS_-4" value="Giovanni" style="rounded=0;whiteSpace=wrap;html=1;fillColor=#fff2cc;strokeColor=#d6b656;" parent="1" vertex="1">
          <mxGeometry x="440" y="280" width="120" height="60" as="geometry" />
        </mxCell>
        <mxCell id="3KIS9S7qjUf6mMkr2eS_-5" value="Pace" style="rounded=0;whiteSpace=wrap;html=1;fillColor=#fff2cc;strokeColor=#d6b656;" parent="1" vertex="1">
          <mxGeometry x="440" y="340" width="120" height="60" as="geometry" />
        </mxCell>
        <mxCell id="3KIS9S7qjUf6mMkr2eS_-6" value="2147483648" style="rounded=0;whiteSpace=wrap;html=1;fillColor=#fff2cc;strokeColor=#d6b656;" parent="1" vertex="1">
          <mxGeometry x="440" y="400" width="120" height="60" as="geometry" />
        </mxCell>
        <mxCell id="3KIS9S7qjUf6mMkr2eS_-8" value="0" style="rounded=0;whiteSpace=wrap;html=1;fillColor=#fff2cc;strokeColor=#d6b656;" parent="1" vertex="1">
          <mxGeometry x="440" y="520" width="120" height="60" as="geometry" />
        </mxCell>
        <mxCell id="3KIS9S7qjUf6mMkr2eS_-9" value="RAM" style="text;html=1;strokeColor=none;fillColor=none;align=center;verticalAlign=middle;whiteSpace=wrap;rounded=0;" parent="1" vertex="1">
          <mxGeometry x="500" y="60" width="60" height="30" as="geometry" />
        </mxCell>
        <mxCell id="3KIS9S7qjUf6mMkr2eS_-11" style="edgeStyle=orthogonalEdgeStyle;rounded=0;orthogonalLoop=1;jettySize=auto;html=1;entryX=0;entryY=0.5;entryDx=0;entryDy=0;" parent="1" source="3KIS9S7qjUf6mMkr2eS_-10" target="3KIS9S7qjUf6mMkr2eS_-2" edge="1">
          <mxGeometry relative="1" as="geometry" />
        </mxCell>
        <mxCell id="3KIS9S7qjUf6mMkr2eS_-10" value="eta&lt;br&gt;0x1235" style="whiteSpace=wrap;html=1;aspect=fixed;" parent="1" vertex="1">
          <mxGeometry x="160" y="150" width="80" height="80" as="geometry" />
        </mxCell>
        <mxCell id="3KIS9S7qjUf6mMkr2eS_-13" style="edgeStyle=orthogonalEdgeStyle;rounded=0;orthogonalLoop=1;jettySize=auto;html=1;" parent="1" source="3KIS9S7qjUf6mMkr2eS_-12" target="3KIS9S7qjUf6mMkr2eS_-4" edge="1">
          <mxGeometry relative="1" as="geometry" />
        </mxCell>
        <mxCell id="3KIS9S7qjUf6mMkr2eS_-12" value="nome&lt;br&gt;0x1237" style="whiteSpace=wrap;html=1;aspect=fixed;" parent="1" vertex="1">
          <mxGeometry x="160" y="260" width="80" height="80" as="geometry" />
        </mxCell>
        <mxCell id="3KIS9S7qjUf6mMkr2eS_-15" style="edgeStyle=orthogonalEdgeStyle;rounded=0;orthogonalLoop=1;jettySize=auto;html=1;" parent="1" source="3KIS9S7qjUf6mMkr2eS_-14" edge="1">
          <mxGeometry relative="1" as="geometry">
            <mxPoint x="320" y="430" as="targetPoint" />
          </mxGeometry>
        </mxCell>
        <mxCell id="3KIS9S7qjUf6mMkr2eS_-14" value="inputUtente&lt;br&gt;null" style="whiteSpace=wrap;html=1;aspect=fixed;" parent="1" vertex="1">
          <mxGeometry x="160" y="390" width="80" height="80" as="geometry" />
        </mxCell>
        <mxCell id="3KIS9S7qjUf6mMkr2eS_-16" value="0x1234" style="text;html=1;strokeColor=none;fillColor=none;align=center;verticalAlign=middle;whiteSpace=wrap;rounded=0;" parent="1" vertex="1">
          <mxGeometry x="560" y="100" width="60" height="30" as="geometry" />
        </mxCell>
        <mxCell id="3KIS9S7qjUf6mMkr2eS_-17" value="0x1235" style="text;html=1;strokeColor=none;fillColor=none;align=center;verticalAlign=middle;whiteSpace=wrap;rounded=0;" parent="1" vertex="1">
          <mxGeometry x="560" y="160" width="60" height="30" as="geometry" />
        </mxCell>
        <mxCell id="3KIS9S7qjUf6mMkr2eS_-18" value="0x1236" style="text;html=1;strokeColor=none;fillColor=none;align=center;verticalAlign=middle;whiteSpace=wrap;rounded=0;" parent="1" vertex="1">
          <mxGeometry x="560" y="220" width="60" height="30" as="geometry" />
        </mxCell>
        <mxCell id="3KIS9S7qjUf6mMkr2eS_-19" value="0x1237" style="text;html=1;strokeColor=none;fillColor=none;align=center;verticalAlign=middle;whiteSpace=wrap;rounded=0;" parent="1" vertex="1">
          <mxGeometry x="560" y="280" width="60" height="30" as="geometry" />
        </mxCell>
        <mxCell id="3KIS9S7qjUf6mMkr2eS_-20" value="0x1238" style="text;html=1;strokeColor=none;fillColor=none;align=center;verticalAlign=middle;whiteSpace=wrap;rounded=0;" parent="1" vertex="1">
          <mxGeometry x="560" y="340" width="60" height="30" as="geometry" />
        </mxCell>
        <mxCell id="3KIS9S7qjUf6mMkr2eS_-21" value="0x1239" style="text;html=1;strokeColor=none;fillColor=none;align=center;verticalAlign=middle;whiteSpace=wrap;rounded=0;" parent="1" vertex="1">
          <mxGeometry x="560" y="400" width="60" height="30" as="geometry" />
        </mxCell>
        <mxCell id="3KIS9S7qjUf6mMkr2eS_-24" value="" style="endArrow=none;html=1;rounded=0;" parent="1" edge="1">
          <mxGeometry width="50" height="50" relative="1" as="geometry">
            <mxPoint x="300" y="460" as="sourcePoint" />
            <mxPoint x="350" y="410" as="targetPoint" />
          </mxGeometry>
        </mxCell>
        <mxCell id="3KIS9S7qjUf6mMkr2eS_-25" value="" style="endArrow=none;html=1;rounded=0;" parent="1" edge="1">
          <mxGeometry width="50" height="50" relative="1" as="geometry">
            <mxPoint x="350" y="460" as="sourcePoint" />
            <mxPoint x="310" y="410" as="targetPoint" />
          </mxGeometry>
        </mxCell>
        <mxCell id="3KIS9S7qjUf6mMkr2eS_-30" style="edgeStyle=orthogonalEdgeStyle;rounded=0;orthogonalLoop=1;jettySize=auto;html=1;" parent="1" source="3KIS9S7qjUf6mMkr2eS_-26" target="3KIS9S7qjUf6mMkr2eS_-29" edge="1">
          <mxGeometry relative="1" as="geometry" />
        </mxCell>
        <mxCell id="3KIS9S7qjUf6mMkr2eS_-26" value="" style="ellipse;whiteSpace=wrap;html=1;aspect=fixed;" parent="1" vertex="1">
          <mxGeometry x="360" y="730" width="40" height="40" as="geometry" />
        </mxCell>
        <mxCell id="3KIS9S7qjUf6mMkr2eS_-32" style="edgeStyle=orthogonalEdgeStyle;rounded=0;orthogonalLoop=1;jettySize=auto;html=1;entryX=0.5;entryY=0;entryDx=0;entryDy=0;" parent="1" source="3KIS9S7qjUf6mMkr2eS_-29" target="3KIS9S7qjUf6mMkr2eS_-31" edge="1">
          <mxGeometry relative="1" as="geometry" />
        </mxCell>
        <mxCell id="3KIS9S7qjUf6mMkr2eS_-29" value="eta = 15" style="rounded=0;whiteSpace=wrap;html=1;" parent="1" vertex="1">
          <mxGeometry x="320" y="820" width="120" height="60" as="geometry" />
        </mxCell>
        <mxCell id="3KIS9S7qjUf6mMkr2eS_-33" style="edgeStyle=orthogonalEdgeStyle;rounded=0;orthogonalLoop=1;jettySize=auto;html=1;" parent="1" source="3KIS9S7qjUf6mMkr2eS_-31" edge="1">
          <mxGeometry relative="1" as="geometry">
            <mxPoint x="590" y="1010" as="targetPoint" />
          </mxGeometry>
        </mxCell>
        <mxCell id="3KIS9S7qjUf6mMkr2eS_-35" value="TRUE" style="edgeLabel;html=1;align=center;verticalAlign=middle;resizable=0;points=[];" parent="3KIS9S7qjUf6mMkr2eS_-33" vertex="1" connectable="0">
          <mxGeometry x="-0.0212" relative="1" as="geometry">
            <mxPoint as="offset" />
          </mxGeometry>
        </mxCell>
        <mxCell id="3KIS9S7qjUf6mMkr2eS_-34" value="FALSE" style="edgeStyle=orthogonalEdgeStyle;rounded=0;orthogonalLoop=1;jettySize=auto;html=1;" parent="1" source="3KIS9S7qjUf6mMkr2eS_-31" edge="1">
          <mxGeometry relative="1" as="geometry">
            <mxPoint x="190" y="1030" as="targetPoint" />
          </mxGeometry>
        </mxCell>
        <mxCell id="3KIS9S7qjUf6mMkr2eS_-31" value="eta &amp;gt;= 18" style="rhombus;whiteSpace=wrap;html=1;" parent="1" vertex="1">
          <mxGeometry x="340" y="920" width="80" height="80" as="geometry" />
        </mxCell>
        <mxCell id="3KIS9S7qjUf6mMkr2eS_-40" style="edgeStyle=orthogonalEdgeStyle;rounded=0;orthogonalLoop=1;jettySize=auto;html=1;entryX=0;entryY=0.5;entryDx=0;entryDy=0;" parent="1" source="3KIS9S7qjUf6mMkr2eS_-38" target="3KIS9S7qjUf6mMkr2eS_-6" edge="1">
          <mxGeometry relative="1" as="geometry">
            <Array as="points">
              <mxPoint x="390" y="570" />
              <mxPoint x="390" y="430" />
            </Array>
          </mxGeometry>
        </mxCell>
        <mxCell id="3KIS9S7qjUf6mMkr2eS_-38" value="numero&lt;br&gt;0x1239" style="whiteSpace=wrap;html=1;aspect=fixed;" parent="1" vertex="1">
          <mxGeometry x="160" y="530" width="80" height="80" as="geometry" />
        </mxCell>
        <mxCell id="3KIS9S7qjUf6mMkr2eS_-39" value="..." style="text;html=1;strokeColor=none;fillColor=none;align=center;verticalAlign=middle;whiteSpace=wrap;rounded=0;" parent="1" vertex="1">
          <mxGeometry x="560" y="460" width="60" height="30" as="geometry" />
        </mxCell>
        <mxCell id="3KIS9S7qjUf6mMkr2eS_-43" style="edgeStyle=orthogonalEdgeStyle;rounded=0;orthogonalLoop=1;jettySize=auto;html=1;entryX=0;entryY=0.5;entryDx=0;entryDy=0;" parent="1" source="3KIS9S7qjUf6mMkr2eS_-42" target="3KIS9S7qjUf6mMkr2eS_-8" edge="1">
          <mxGeometry relative="1" as="geometry">
            <Array as="points">
              <mxPoint x="420" y="680" />
              <mxPoint x="420" y="550" />
            </Array>
          </mxGeometry>
        </mxCell>
        <mxCell id="3KIS9S7qjUf6mMkr2eS_-42" value="a" style="whiteSpace=wrap;html=1;aspect=fixed;" parent="1" vertex="1">
          <mxGeometry x="160" y="640" width="80" height="80" as="geometry" />
        </mxCell>
        <mxCell id="3KIS9S7qjUf6mMkr2eS_-44" value="" style="rounded=0;whiteSpace=wrap;html=1;" parent="1" vertex="1">
          <mxGeometry x="280" y="1260" width="20" height="360" as="geometry" />
        </mxCell>
        <mxCell id="3KIS9S7qjUf6mMkr2eS_-45" value="Main" style="text;html=1;strokeColor=none;fillColor=none;align=center;verticalAlign=middle;whiteSpace=wrap;rounded=0;" parent="1" vertex="1">
          <mxGeometry x="260" y="1220" width="60" height="30" as="geometry" />
        </mxCell>
        <mxCell id="3KIS9S7qjUf6mMkr2eS_-46" value="string provincia = &quot;BO&quot;;&#xa;&#xa;&#xa;            switch (provincia)&#xa;            {&#xa;                case &quot;AQ&quot;:&#xa;                    Console.WriteLine(&quot;L&#39;Aquila&quot;);&#xa;                    break;&#xa;                case &quot;PE&quot;:&#xa;                    Console.WriteLine(&quot;Pescara&quot;);&#xa;                    break;&#xa;                case &quot;BO&quot;:&#xa;                    Console.WriteLine(&quot;Bologna&quot;);&#xa;                    break;&#xa;                default: &#xa;                    Console.WriteLine(&quot;Non trovato&quot;);&#xa;                    break;&#xa;            }" style="text;whiteSpace=wrap;html=1;" parent="1" vertex="1">
          <mxGeometry x="330" y="1320" width="280" height="280" as="geometry" />
        </mxCell>
        <mxCell id="3KIS9S7qjUf6mMkr2eS_-47" value="" style="rounded=0;whiteSpace=wrap;html=1;" parent="1" vertex="1">
          <mxGeometry x="290" y="1370" width="20" height="160" as="geometry" />
        </mxCell>
        <mxCell id="3KIS9S7qjUf6mMkr2eS_-48" value="Netflix" style="rounded=0;whiteSpace=wrap;html=1;fillColor=#f8cecc;strokeColor=#b85450;" parent="1" vertex="1">
          <mxGeometry x="470" y="1970" width="120" height="60" as="geometry" />
        </mxCell>
        <mxCell id="3KIS9S7qjUf6mMkr2eS_-49" value="" style="rounded=0;whiteSpace=wrap;html=1;" parent="1" vertex="1">
          <mxGeometry x="470" y="2030" width="120" height="60" as="geometry" />
        </mxCell>
        <mxCell id="3KIS9S7qjUf6mMkr2eS_-50" value="Instagram" style="rounded=0;whiteSpace=wrap;html=1;fillColor=#f8cecc;strokeColor=#b85450;" parent="1" vertex="1">
          <mxGeometry x="470" y="2090" width="120" height="60" as="geometry" />
        </mxCell>
        <mxCell id="3KIS9S7qjUf6mMkr2eS_-51" value="" style="rounded=0;whiteSpace=wrap;html=1;" parent="1" vertex="1">
          <mxGeometry x="470" y="2150" width="120" height="60" as="geometry" />
        </mxCell>
        <mxCell id="3KIS9S7qjUf6mMkr2eS_-52" value="" style="rounded=0;whiteSpace=wrap;html=1;" parent="1" vertex="1">
          <mxGeometry x="470" y="2210" width="120" height="60" as="geometry" />
        </mxCell>
        <mxCell id="3KIS9S7qjUf6mMkr2eS_-53" value="" style="rounded=0;whiteSpace=wrap;html=1;" parent="1" vertex="1">
          <mxGeometry x="470" y="2270" width="120" height="60" as="geometry" />
        </mxCell>
        <mxCell id="3KIS9S7qjUf6mMkr2eS_-59" style="edgeStyle=orthogonalEdgeStyle;rounded=0;orthogonalLoop=1;jettySize=auto;html=1;entryX=0;entryY=0.5;entryDx=0;entryDy=0;" parent="1" source="3KIS9S7qjUf6mMkr2eS_-58" target="3KIS9S7qjUf6mMkr2eS_-60" edge="1">
          <mxGeometry relative="1" as="geometry" />
        </mxCell>
        <mxCell id="3KIS9S7qjUf6mMkr2eS_-58" value="Numeri" style="whiteSpace=wrap;html=1;aspect=fixed;" parent="1" vertex="1">
          <mxGeometry x="200" y="2030" width="80" height="80" as="geometry" />
        </mxCell>
        <mxCell id="3KIS9S7qjUf6mMkr2eS_-60" value="" style="rounded=0;whiteSpace=wrap;html=1;fillColor=#fff2cc;strokeColor=#d6b656;" parent="1" vertex="1">
          <mxGeometry x="470" y="2150" width="20" height="60" as="geometry" />
        </mxCell>
        <mxCell id="3KIS9S7qjUf6mMkr2eS_-61" value="" style="rounded=0;whiteSpace=wrap;html=1;fillColor=#fff2cc;strokeColor=#d6b656;" parent="1" vertex="1">
          <mxGeometry x="490" y="2150" width="20" height="60" as="geometry" />
        </mxCell>
        <mxCell id="3KIS9S7qjUf6mMkr2eS_-62" value="" style="rounded=0;whiteSpace=wrap;html=1;fillColor=#fff2cc;strokeColor=#d6b656;" parent="1" vertex="1">
          <mxGeometry x="510" y="2150" width="20" height="60" as="geometry" />
        </mxCell>
        <mxCell id="3KIS9S7qjUf6mMkr2eS_-63" value="" style="rounded=0;whiteSpace=wrap;html=1;fillColor=#fff2cc;strokeColor=#d6b656;" parent="1" vertex="1">
          <mxGeometry x="530" y="2150" width="20" height="60" as="geometry" />
        </mxCell>
        <mxCell id="3KIS9S7qjUf6mMkr2eS_-64" value="" style="rounded=0;whiteSpace=wrap;html=1;fillColor=#fff2cc;strokeColor=#d6b656;" parent="1" vertex="1">
          <mxGeometry x="550" y="2150" width="20" height="60" as="geometry" />
        </mxCell>
        <mxCell id="3KIS9S7qjUf6mMkr2eS_-65" value="" style="rounded=0;whiteSpace=wrap;html=1;fillColor=#fff2cc;strokeColor=#d6b656;" parent="1" vertex="1">
          <mxGeometry x="570" y="2150" width="20" height="60" as="geometry" />
        </mxCell>
        <mxCell id="3KIS9S7qjUf6mMkr2eS_-68" value="" style="rounded=0;whiteSpace=wrap;html=1;fillColor=#fff2cc;strokeColor=#d6b656;" parent="1" vertex="1">
          <mxGeometry x="470" y="2210" width="20" height="60" as="geometry" />
        </mxCell>
        <mxCell id="3KIS9S7qjUf6mMkr2eS_-69" value="Main" style="rounded=0;whiteSpace=wrap;html=1;fillColor=#dae8fc;strokeColor=#6c8ebf;" parent="1" vertex="1">
          <mxGeometry x="340" y="2400" width="120" height="140" as="geometry" />
        </mxCell>
        <mxCell id="3KIS9S7qjUf6mMkr2eS_-70" value="b = 5" style="rounded=0;whiteSpace=wrap;html=1;fillColor=#fff2cc;strokeColor=#d6b656;" parent="1" vertex="1">
          <mxGeometry x="430" y="2420" width="120" height="100" as="geometry" />
        </mxCell>
        <mxCell id="3KIS9S7qjUf6mMkr2eS_-71" value="Giovanni Pace" style="rounded=0;whiteSpace=wrap;html=1;fillColor=#d5e8d4;strokeColor=#82b366;" parent="1" vertex="1">
          <mxGeometry x="354" y="2710" width="106" height="50" as="geometry" />
        </mxCell>
        <mxCell id="3KIS9S7qjUf6mMkr2eS_-72" value="12345" style="rounded=0;whiteSpace=wrap;html=1;fillColor=#d5e8d4;strokeColor=#82b366;" parent="1" vertex="1">
          <mxGeometry x="460" y="2710" width="106" height="50" as="geometry" />
        </mxCell>
        <mxCell id="3KIS9S7qjUf6mMkr2eS_-73" value="PCAGNN" style="rounded=0;whiteSpace=wrap;html=1;fillColor=#d5e8d4;strokeColor=#82b366;" parent="1" vertex="1">
          <mxGeometry x="566" y="2710" width="106" height="50" as="geometry" />
        </mxCell>
        <mxCell id="3KIS9S7qjUf6mMkr2eS_-74" value="Valeria Verdi" style="rounded=0;whiteSpace=wrap;html=1;fillColor=#d5e8d4;strokeColor=#82b366;" parent="1" vertex="1">
          <mxGeometry x="354" y="2810" width="106" height="50" as="geometry" />
        </mxCell>
        <mxCell id="3KIS9S7qjUf6mMkr2eS_-75" value="12346" style="rounded=0;whiteSpace=wrap;html=1;fillColor=#d5e8d4;strokeColor=#82b366;" parent="1" vertex="1">
          <mxGeometry x="460" y="2810" width="106" height="50" as="geometry" />
        </mxCell>
        <mxCell id="3KIS9S7qjUf6mMkr2eS_-76" value="VLRVRD" style="rounded=0;whiteSpace=wrap;html=1;fillColor=#d5e8d4;strokeColor=#82b366;" parent="1" vertex="1">
          <mxGeometry x="566" y="2810" width="106" height="50" as="geometry" />
        </mxCell>
        <mxCell id="3KIS9S7qjUf6mMkr2eS_-79" value="Elenco" style="text;html=1;strokeColor=none;fillColor=none;align=center;verticalAlign=middle;whiteSpace=wrap;rounded=0;" parent="1" vertex="1">
          <mxGeometry x="320" y="2650" width="60" height="30" as="geometry" />
        </mxCell>
        <mxCell id="3KIS9S7qjUf6mMkr2eS_-80" value="StudUno" style="text;html=1;strokeColor=none;fillColor=none;align=center;verticalAlign=middle;whiteSpace=wrap;rounded=0;" parent="1" vertex="1">
          <mxGeometry x="612" y="2690" width="60" height="30" as="geometry" />
        </mxCell>
        <mxCell id="3KIS9S7qjUf6mMkr2eS_-81" value="StudDue" style="text;html=1;strokeColor=none;fillColor=none;align=center;verticalAlign=middle;whiteSpace=wrap;rounded=0;" parent="1" vertex="1">
          <mxGeometry x="610" y="2790" width="60" height="30" as="geometry" />
        </mxCell>
        <mxCell id="3KIS9S7qjUf6mMkr2eS_-84" value="1" style="text;html=1;strokeColor=none;fillColor=none;align=center;verticalAlign=middle;whiteSpace=wrap;rounded=0;" parent="1" vertex="1">
          <mxGeometry x="260" y="2820" width="60" height="30" as="geometry" />
        </mxCell>
        <mxCell id="3KIS9S7qjUf6mMkr2eS_-85" value="0" style="text;html=1;strokeColor=none;fillColor=none;align=center;verticalAlign=middle;whiteSpace=wrap;rounded=0;" parent="1" vertex="1">
          <mxGeometry x="377" y="2680" width="60" height="30" as="geometry" />
        </mxCell>
        <mxCell id="3KIS9S7qjUf6mMkr2eS_-86" value="1" style="text;html=1;strokeColor=none;fillColor=none;align=center;verticalAlign=middle;whiteSpace=wrap;rounded=0;" parent="1" vertex="1">
          <mxGeometry x="490" y="2680" width="60" height="30" as="geometry" />
        </mxCell>
        <mxCell id="3KIS9S7qjUf6mMkr2eS_-87" value="2" style="text;html=1;strokeColor=none;fillColor=none;align=center;verticalAlign=middle;whiteSpace=wrap;rounded=0;" parent="1" vertex="1">
          <mxGeometry x="589" y="2680" width="60" height="30" as="geometry" />
        </mxCell>
        <mxCell id="3KIS9S7qjUf6mMkr2eS_-88" value="0" style="text;html=1;strokeColor=none;fillColor=none;align=center;verticalAlign=middle;whiteSpace=wrap;rounded=0;" parent="1" vertex="1">
          <mxGeometry x="260" y="2730" width="60" height="30" as="geometry" />
        </mxCell>
        <mxCell id="3KIS9S7qjUf6mMkr2eS_-89" value="saluta()" style="shape=cube;whiteSpace=wrap;html=1;boundedLbl=1;backgroundOutline=1;darkOpacity=0.05;darkOpacity2=0.1;" parent="1" vertex="1">
          <mxGeometry x="455" y="3507" width="210" height="80" as="geometry" />
        </mxCell>
        <mxCell id="3KIS9S7qjUf6mMkr2eS_-90" value="" style="shape=cylinder3;whiteSpace=wrap;html=1;boundedLbl=1;backgroundOutline=1;size=4.50015258789108;" parent="1" vertex="1">
          <mxGeometry x="230" y="3380" width="20" height="370" as="geometry" />
        </mxCell>
        <mxCell id="3KIS9S7qjUf6mMkr2eS_-91" value="Main" style="text;html=1;strokeColor=none;fillColor=none;align=center;verticalAlign=middle;whiteSpace=wrap;rounded=0;" parent="1" vertex="1">
          <mxGeometry x="210" y="3340" width="60" height="30" as="geometry" />
        </mxCell>
        <mxCell id="3KIS9S7qjUf6mMkr2eS_-92" value="" style="endArrow=classic;html=1;rounded=0;entryX=0;entryY=0;entryDx=95;entryDy=0;entryPerimeter=0;" parent="1" target="3KIS9S7qjUf6mMkr2eS_-89" edge="1">
          <mxGeometry width="50" height="50" relative="1" as="geometry">
            <mxPoint x="250" y="3480" as="sourcePoint" />
            <mxPoint x="450" y="3480" as="targetPoint" />
            <Array as="points">
              <mxPoint x="550" y="3480" />
            </Array>
          </mxGeometry>
        </mxCell>
        <mxCell id="3KIS9S7qjUf6mMkr2eS_-98" value="&quot;Giovanni Pace&quot;" style="edgeLabel;html=1;align=center;verticalAlign=middle;resizable=0;points=[];" parent="3KIS9S7qjUf6mMkr2eS_-92" vertex="1" connectable="0">
          <mxGeometry x="-0.3673" y="-1" relative="1" as="geometry">
            <mxPoint x="7" y="-11" as="offset" />
          </mxGeometry>
        </mxCell>
        <mxCell id="3KIS9S7qjUf6mMkr2eS_-97" value="string nominativo" style="ellipse;whiteSpace=wrap;html=1;fillColor=#fff2cc;strokeColor=#d6b656;" parent="1" vertex="1">
          <mxGeometry x="480" y="3507" width="160" height="23" as="geometry" />
        </mxCell>
        <mxCell id="3KIS9S7qjUf6mMkr2eS_-99" value="somma(int, int, int)" style="shape=cube;whiteSpace=wrap;html=1;boundedLbl=1;backgroundOutline=1;darkOpacity=0.05;darkOpacity2=0.1;" parent="1" vertex="1">
          <mxGeometry x="455" y="3640" width="210" height="80" as="geometry" />
        </mxCell>
        <mxCell id="3KIS9S7qjUf6mMkr2eS_-100" value="" style="endArrow=classic;html=1;rounded=0;entryX=0;entryY=0;entryDx=95;entryDy=0;entryPerimeter=0;" parent="1" target="3KIS9S7qjUf6mMkr2eS_-99" edge="1">
          <mxGeometry width="50" height="50" relative="1" as="geometry">
            <mxPoint x="250" y="3630" as="sourcePoint" />
            <mxPoint x="300" y="3580" as="targetPoint" />
            <Array as="points">
              <mxPoint x="550" y="3630" />
            </Array>
          </mxGeometry>
        </mxCell>
        <mxCell id="3KIS9S7qjUf6mMkr2eS_-101" value="int, int, int" style="ellipse;whiteSpace=wrap;html=1;fillColor=#fff2cc;strokeColor=#d6b656;" parent="1" vertex="1">
          <mxGeometry x="480" y="3640" width="160" height="23" as="geometry" />
        </mxCell>
        <mxCell id="3KIS9S7qjUf6mMkr2eS_-102" value="" style="endArrow=classic;html=1;rounded=0;exitX=0;exitY=0;exitDx=10;exitDy=70;exitPerimeter=0;entryX=1.283;entryY=0.888;entryDx=0;entryDy=0;entryPerimeter=0;" parent="1" source="3KIS9S7qjUf6mMkr2eS_-99" target="3KIS9S7qjUf6mMkr2eS_-90" edge="1">
          <mxGeometry width="50" height="50" relative="1" as="geometry">
            <mxPoint x="290" y="3710" as="sourcePoint" />
            <mxPoint x="340" y="3660" as="targetPoint" />
          </mxGeometry>
        </mxCell>
        <mxCell id="3KIS9S7qjUf6mMkr2eS_-103" value="int" style="edgeLabel;html=1;align=center;verticalAlign=middle;resizable=0;points=[];" parent="3KIS9S7qjUf6mMkr2eS_-102" vertex="1" connectable="0">
          <mxGeometry x="-0.189" relative="1" as="geometry">
            <mxPoint as="offset" />
          </mxGeometry>
        </mxCell>
        <mxCell id="3KIS9S7qjUf6mMkr2eS_-329" style="edgeStyle=orthogonalEdgeStyle;rounded=0;orthogonalLoop=1;jettySize=auto;html=1;fontSize=11;endArrow=classic;endFill=1;" parent="1" source="3KIS9S7qjUf6mMkr2eS_-104" edge="1">
          <mxGeometry relative="1" as="geometry">
            <mxPoint x="384" y="4140" as="targetPoint" />
          </mxGeometry>
        </mxCell>
        <mxCell id="3KIS9S7qjUf6mMkr2eS_-104" value="Automobile" style="shape=cylinder3;whiteSpace=wrap;html=1;boundedLbl=1;backgroundOutline=1;size=15;" parent="1" vertex="1">
          <mxGeometry x="354" y="3990" width="60" height="80" as="geometry" />
        </mxCell>
        <mxCell id="3KIS9S7qjUf6mMkr2eS_-105" value="" style="shape=parallelogram;perimeter=parallelogramPerimeter;whiteSpace=wrap;html=1;fixedSize=1;size=119.99999999999989;" parent="1" vertex="1">
          <mxGeometry x="220" y="4160" width="570" height="60" as="geometry" />
        </mxCell>
        <mxCell id="3KIS9S7qjUf6mMkr2eS_-106" value="" style="ellipse;whiteSpace=wrap;html=1;aspect=fixed;" parent="1" vertex="1">
          <mxGeometry x="200" y="4220" width="40" height="40" as="geometry" />
        </mxCell>
        <mxCell id="3KIS9S7qjUf6mMkr2eS_-107" value="" style="ellipse;whiteSpace=wrap;html=1;aspect=fixed;" parent="1" vertex="1">
          <mxGeometry x="649" y="4220" width="40" height="40" as="geometry" />
        </mxCell>
        <mxCell id="3KIS9S7qjUf6mMkr2eS_-109" value="" style="endArrow=none;html=1;rounded=0;entryX=0.5;entryY=1;entryDx=0;entryDy=0;" parent="1" target="3KIS9S7qjUf6mMkr2eS_-107" edge="1">
          <mxGeometry width="50" height="50" relative="1" as="geometry">
            <mxPoint x="220" y="4260" as="sourcePoint" />
            <mxPoint x="270" y="4210" as="targetPoint" />
          </mxGeometry>
        </mxCell>
        <mxCell id="3KIS9S7qjUf6mMkr2eS_-110" value="" style="endArrow=none;html=1;rounded=0;entryX=1;entryY=1;entryDx=0;entryDy=0;exitX=1;exitY=1;exitDx=0;exitDy=0;" parent="1" source="3KIS9S7qjUf6mMkr2eS_-107" target="3KIS9S7qjUf6mMkr2eS_-108" edge="1">
          <mxGeometry width="50" height="50" relative="1" as="geometry">
            <mxPoint x="230.0000000000001" y="4270" as="sourcePoint" />
            <mxPoint x="679" y="4270" as="targetPoint" />
          </mxGeometry>
        </mxCell>
        <mxCell id="3KIS9S7qjUf6mMkr2eS_-111" value="" style="shape=mxgraph.signs.transportation.car_4;html=1;pointerEvents=1;fillColor=#000000;strokeColor=none;verticalLabelPosition=bottom;verticalAlign=top;align=center;" parent="1" vertex="1">
          <mxGeometry x="367.5" y="3980" width="33" height="30" as="geometry" />
        </mxCell>
        <mxCell id="3KIS9S7qjUf6mMkr2eS_-112" value="" style="shape=mxgraph.signs.transportation.car_4;html=1;pointerEvents=1;fillColor=#dae8fc;strokeColor=#6c8ebf;verticalLabelPosition=bottom;verticalAlign=top;align=center;" parent="1" vertex="1">
          <mxGeometry x="550.5" y="4170" width="33" height="30" as="geometry" />
        </mxCell>
        <mxCell id="3KIS9S7qjUf6mMkr2eS_-113" value="" style="shape=mxgraph.signs.transportation.car_4;html=1;pointerEvents=1;fillColor=#fff2cc;strokeColor=#d6b656;verticalLabelPosition=bottom;verticalAlign=top;align=center;" parent="1" vertex="1">
          <mxGeometry x="464" y="4170" width="33" height="30" as="geometry" />
        </mxCell>
        <mxCell id="3KIS9S7qjUf6mMkr2eS_-114" value="Netflix" style="rounded=0;whiteSpace=wrap;html=1;fillColor=#f8cecc;strokeColor=#b85450;" parent="1" vertex="1">
          <mxGeometry x="500" y="4450" width="120" height="60" as="geometry" />
        </mxCell>
        <mxCell id="3KIS9S7qjUf6mMkr2eS_-115" value="&lt;div style=&quot;font-size: 11px;&quot;&gt;&lt;font style=&quot;font-size: 11px;&quot;&gt;public string marca;&lt;/font&gt;&lt;/div&gt;&lt;div style=&quot;font-size: 11px;&quot;&gt;&lt;font style=&quot;font-size: 11px;&quot;&gt;public int cilindrata;&lt;/font&gt;&lt;/div&gt;&lt;div style=&quot;font-size: 11px;&quot;&gt;&lt;font style=&quot;font-size: 11px;&quot;&gt;public string colore&quot;;&lt;/font&gt;&lt;/div&gt;&lt;div style=&quot;font-size: 11px;&quot;&gt;&lt;font style=&quot;font-size: 11px;&quot;&gt;public int posti;&lt;/font&gt;&lt;/div&gt;" style="rounded=0;whiteSpace=wrap;html=1;fillColor=#fff2cc;strokeColor=#d6b656;align=left;" parent="1" vertex="1">
          <mxGeometry x="500" y="4510" width="120" height="60" as="geometry" />
        </mxCell>
        <mxCell id="3KIS9S7qjUf6mMkr2eS_-116" value="Instagram" style="rounded=0;whiteSpace=wrap;html=1;fillColor=#f8cecc;strokeColor=#b85450;" parent="1" vertex="1">
          <mxGeometry x="500" y="4570" width="120" height="60" as="geometry" />
        </mxCell>
        <mxCell id="3KIS9S7qjUf6mMkr2eS_-117" value="Peugeot" style="rounded=0;whiteSpace=wrap;html=1;fillColor=#fff2cc;strokeColor=#d6b656;" parent="1" vertex="1">
          <mxGeometry x="500" y="4630" width="120" height="60" as="geometry" />
        </mxCell>
        <mxCell id="3KIS9S7qjUf6mMkr2eS_-118" value="0" style="rounded=0;whiteSpace=wrap;html=1;fillColor=#fff2cc;strokeColor=#d6b656;" parent="1" vertex="1">
          <mxGeometry x="500" y="4690" width="120" height="60" as="geometry" />
        </mxCell>
        <mxCell id="3KIS9S7qjUf6mMkr2eS_-119" value="N.D." style="rounded=0;whiteSpace=wrap;html=1;fillColor=#fff2cc;strokeColor=#d6b656;" parent="1" vertex="1">
          <mxGeometry x="500" y="4750" width="120" height="60" as="geometry" />
        </mxCell>
        <mxCell id="3KIS9S7qjUf6mMkr2eS_-128" style="edgeStyle=orthogonalEdgeStyle;rounded=0;orthogonalLoop=1;jettySize=auto;html=1;entryX=0;entryY=0.5;entryDx=0;entryDy=0;" parent="1" source="3KIS9S7qjUf6mMkr2eS_-127" target="3KIS9S7qjUf6mMkr2eS_-115" edge="1">
          <mxGeometry relative="1" as="geometry" />
        </mxCell>
        <mxCell id="3KIS9S7qjUf6mMkr2eS_-127" value="peugeot&lt;br&gt;1235" style="whiteSpace=wrap;html=1;aspect=fixed;" parent="1" vertex="1">
          <mxGeometry x="200" y="4580" width="80" height="80" as="geometry" />
        </mxCell>
        <mxCell id="3KIS9S7qjUf6mMkr2eS_-129" value="1234" style="text;html=1;strokeColor=none;fillColor=none;align=center;verticalAlign=middle;whiteSpace=wrap;rounded=0;fontSize=11;" parent="1" vertex="1">
          <mxGeometry x="620" y="4450" width="60" height="30" as="geometry" />
        </mxCell>
        <mxCell id="3KIS9S7qjUf6mMkr2eS_-130" value="1235" style="text;html=1;strokeColor=none;fillColor=none;align=center;verticalAlign=middle;whiteSpace=wrap;rounded=0;fontSize=11;" parent="1" vertex="1">
          <mxGeometry x="620" y="4510" width="60" height="30" as="geometry" />
        </mxCell>
        <mxCell id="3KIS9S7qjUf6mMkr2eS_-131" value="1236" style="text;html=1;strokeColor=none;fillColor=none;align=center;verticalAlign=middle;whiteSpace=wrap;rounded=0;fontSize=11;" parent="1" vertex="1">
          <mxGeometry x="620" y="4570" width="60" height="30" as="geometry" />
        </mxCell>
        <mxCell id="3KIS9S7qjUf6mMkr2eS_-132" value="1237" style="text;html=1;strokeColor=none;fillColor=none;align=center;verticalAlign=middle;whiteSpace=wrap;rounded=0;fontSize=11;" parent="1" vertex="1">
          <mxGeometry x="620" y="4630" width="60" height="30" as="geometry" />
        </mxCell>
        <mxCell id="3KIS9S7qjUf6mMkr2eS_-133" value="1238" style="text;html=1;strokeColor=none;fillColor=none;align=center;verticalAlign=middle;whiteSpace=wrap;rounded=0;fontSize=11;" parent="1" vertex="1">
          <mxGeometry x="620" y="4690" width="60" height="30" as="geometry" />
        </mxCell>
        <mxCell id="3KIS9S7qjUf6mMkr2eS_-134" value="1239" style="text;html=1;strokeColor=none;fillColor=none;align=center;verticalAlign=middle;whiteSpace=wrap;rounded=0;fontSize=11;" parent="1" vertex="1">
          <mxGeometry x="620" y="4750" width="60" height="30" as="geometry" />
        </mxCell>
        <mxCell id="3KIS9S7qjUf6mMkr2eS_-135" value="0" style="rounded=0;whiteSpace=wrap;html=1;fillColor=#fff2cc;strokeColor=#d6b656;" parent="1" vertex="1">
          <mxGeometry x="500" y="4810" width="120" height="60" as="geometry" />
        </mxCell>
        <mxCell id="3KIS9S7qjUf6mMkr2eS_-136" value="1240" style="text;html=1;strokeColor=none;fillColor=none;align=center;verticalAlign=middle;whiteSpace=wrap;rounded=0;fontSize=11;" parent="1" vertex="1">
          <mxGeometry x="620" y="4810" width="60" height="30" as="geometry" />
        </mxCell>
        <mxCell id="3KIS9S7qjUf6mMkr2eS_-137" value="" style="endArrow=classic;html=1;rounded=0;fontSize=11;entryX=1;entryY=0.5;entryDx=0;entryDy=0;" parent="1" target="3KIS9S7qjUf6mMkr2eS_-117" edge="1">
          <mxGeometry width="50" height="50" relative="1" as="geometry">
            <mxPoint x="620" y="4520" as="sourcePoint" />
            <mxPoint x="670" y="4470" as="targetPoint" />
            <Array as="points">
              <mxPoint x="710" y="4520" />
              <mxPoint x="710" y="4660" />
            </Array>
          </mxGeometry>
        </mxCell>
        <mxCell id="3KIS9S7qjUf6mMkr2eS_-138" value="" style="endArrow=classic;html=1;rounded=0;fontSize=11;entryX=0;entryY=1;entryDx=0;entryDy=0;" parent="1" target="3KIS9S7qjUf6mMkr2eS_-133" edge="1">
          <mxGeometry width="50" height="50" relative="1" as="geometry">
            <mxPoint x="621" y="4530" as="sourcePoint" />
            <mxPoint x="621" y="4670" as="targetPoint" />
            <Array as="points">
              <mxPoint x="720" y="4530" />
              <mxPoint x="720" y="4720" />
            </Array>
          </mxGeometry>
        </mxCell>
        <mxCell id="3KIS9S7qjUf6mMkr2eS_-139" value="" style="endArrow=classic;html=1;rounded=0;fontSize=11;entryX=0;entryY=1;entryDx=0;entryDy=0;" parent="1" target="3KIS9S7qjUf6mMkr2eS_-134" edge="1">
          <mxGeometry width="50" height="50" relative="1" as="geometry">
            <mxPoint x="621" y="4550" as="sourcePoint" />
            <mxPoint x="620" y="4740" as="targetPoint" />
            <Array as="points">
              <mxPoint x="730" y="4550" />
              <mxPoint x="730" y="4780" />
            </Array>
          </mxGeometry>
        </mxCell>
        <mxCell id="3KIS9S7qjUf6mMkr2eS_-140" value="" style="endArrow=classic;html=1;rounded=0;fontSize=11;entryX=0;entryY=1;entryDx=0;entryDy=0;exitX=1;exitY=0.75;exitDx=0;exitDy=0;" parent="1" source="3KIS9S7qjUf6mMkr2eS_-115" target="3KIS9S7qjUf6mMkr2eS_-136" edge="1">
          <mxGeometry width="50" height="50" relative="1" as="geometry">
            <mxPoint x="621" y="4570" as="sourcePoint" />
            <mxPoint x="620" y="4800" as="targetPoint" />
            <Array as="points">
              <mxPoint x="740" y="4560" />
              <mxPoint x="740" y="4840" />
            </Array>
          </mxGeometry>
        </mxCell>
        <mxCell id="3KIS9S7qjUf6mMkr2eS_-142" style="edgeStyle=orthogonalEdgeStyle;rounded=0;orthogonalLoop=1;jettySize=auto;html=1;fontSize=11;" parent="1" source="3KIS9S7qjUf6mMkr2eS_-141" edge="1">
          <mxGeometry relative="1" as="geometry">
            <mxPoint x="420" y="4730" as="targetPoint" />
          </mxGeometry>
        </mxCell>
        <mxCell id="3KIS9S7qjUf6mMkr2eS_-141" value="tesla" style="whiteSpace=wrap;html=1;aspect=fixed;" parent="1" vertex="1">
          <mxGeometry x="200" y="4690" width="80" height="80" as="geometry" />
        </mxCell>
        <mxCell id="3KIS9S7qjUf6mMkr2eS_-146" value="&lt;div style=&quot;text-align: left; font-size: 11px;&quot;&gt;&lt;br&gt;&lt;/div&gt;" style="rounded=0;whiteSpace=wrap;html=1;" parent="1" vertex="1">
          <mxGeometry x="500" y="4870" width="120" height="60" as="geometry" />
        </mxCell>
        <mxCell id="3KIS9S7qjUf6mMkr2eS_-147" value="" style="shape=cube;whiteSpace=wrap;html=1;boundedLbl=1;backgroundOutline=1;darkOpacity=0.05;darkOpacity2=0.1;fontSize=11;" parent="1" vertex="1">
          <mxGeometry x="437" y="5320" width="263" height="240" as="geometry" />
        </mxCell>
        <mxCell id="3KIS9S7qjUf6mMkr2eS_-159" style="edgeStyle=orthogonalEdgeStyle;rounded=0;orthogonalLoop=1;jettySize=auto;html=1;entryX=0.5;entryY=1;entryDx=0;entryDy=0;entryPerimeter=0;fontSize=11;" parent="1" source="3KIS9S7qjUf6mMkr2eS_-148" target="3KIS9S7qjUf6mMkr2eS_-152" edge="1">
          <mxGeometry relative="1" as="geometry">
            <Array as="points">
              <mxPoint x="520" y="5360" />
              <mxPoint x="520" y="5440" />
            </Array>
          </mxGeometry>
        </mxCell>
        <mxCell id="3KIS9S7qjUf6mMkr2eS_-148" value="modello&lt;br&gt;&lt;div style=&quot;&quot;&gt;&lt;span style=&quot;background-color: initial;&quot;&gt;cilindrata&lt;/span&gt;&lt;/div&gt;" style="text;html=1;strokeColor=none;fillColor=none;align=left;verticalAlign=middle;whiteSpace=wrap;rounded=0;fontSize=11;" parent="1" vertex="1">
          <mxGeometry x="610" y="5360" width="60" height="30" as="geometry" />
        </mxCell>
        <mxCell id="3KIS9S7qjUf6mMkr2eS_-156" style="edgeStyle=orthogonalEdgeStyle;rounded=0;orthogonalLoop=1;jettySize=auto;html=1;entryX=0.5;entryY=0;entryDx=0;entryDy=0;entryPerimeter=0;fontSize=11;" parent="1" source="3KIS9S7qjUf6mMkr2eS_-149" target="3KIS9S7qjUf6mMkr2eS_-153" edge="1">
          <mxGeometry relative="1" as="geometry" />
        </mxCell>
        <mxCell id="3KIS9S7qjUf6mMkr2eS_-149" value="Pino" style="shape=umlActor;verticalLabelPosition=bottom;verticalAlign=top;html=1;outlineConnect=0;fontSize=11;" parent="1" vertex="1">
          <mxGeometry x="210" y="5420" width="30" height="60" as="geometry" />
        </mxCell>
        <mxCell id="3KIS9S7qjUf6mMkr2eS_-160" style="edgeStyle=orthogonalEdgeStyle;rounded=0;orthogonalLoop=1;jettySize=auto;html=1;entryX=1;entryY=0.3333333333333333;entryDx=0;entryDy=0;entryPerimeter=0;fontSize=11;" parent="1" source="3KIS9S7qjUf6mMkr2eS_-152" target="3KIS9S7qjUf6mMkr2eS_-149" edge="1">
          <mxGeometry relative="1" as="geometry" />
        </mxCell>
        <mxCell id="3KIS9S7qjUf6mMkr2eS_-152" value="get" style="shape=cylinder3;whiteSpace=wrap;html=1;boundedLbl=1;backgroundOutline=1;size=6.611094156901345;fontSize=11;rotation=-90;" parent="1" vertex="1">
          <mxGeometry x="400" y="5400" width="26.5" height="80" as="geometry" />
        </mxCell>
        <mxCell id="3KIS9S7qjUf6mMkr2eS_-157" style="edgeStyle=orthogonalEdgeStyle;rounded=0;orthogonalLoop=1;jettySize=auto;html=1;entryX=0;entryY=0.25;entryDx=0;entryDy=0;fontSize=11;" parent="1" source="3KIS9S7qjUf6mMkr2eS_-153" target="3KIS9S7qjUf6mMkr2eS_-148" edge="1">
          <mxGeometry relative="1" as="geometry" />
        </mxCell>
        <mxCell id="3KIS9S7qjUf6mMkr2eS_-153" value="set" style="shape=cylinder3;whiteSpace=wrap;html=1;boundedLbl=1;backgroundOutline=1;size=6.611094156901345;fontSize=11;rotation=-90;" parent="1" vertex="1">
          <mxGeometry x="400" y="5430" width="26.5" height="80" as="geometry" />
        </mxCell>
        <mxCell id="3KIS9S7qjUf6mMkr2eS_-154" value="get" style="shape=cylinder3;whiteSpace=wrap;html=1;boundedLbl=1;backgroundOutline=1;size=6.611094156901345;fontSize=11;rotation=-90;" parent="1" vertex="1">
          <mxGeometry x="400" y="5460" width="26.5" height="80" as="geometry" />
        </mxCell>
        <mxCell id="3KIS9S7qjUf6mMkr2eS_-155" value="set" style="shape=cylinder3;whiteSpace=wrap;html=1;boundedLbl=1;backgroundOutline=1;size=6.611094156901345;fontSize=11;rotation=-90;" parent="1" vertex="1">
          <mxGeometry x="400" y="5490" width="26.5" height="80" as="geometry" />
        </mxCell>
        <mxCell id="3KIS9S7qjUf6mMkr2eS_-161" value="Moto" style="text;html=1;strokeColor=none;fillColor=none;align=center;verticalAlign=middle;whiteSpace=wrap;rounded=0;fontSize=11;" parent="1" vertex="1">
          <mxGeometry x="440" y="5290" width="60" height="30" as="geometry" />
        </mxCell>
        <mxCell id="3KIS9S7qjUf6mMkr2eS_-162" value="Bicicletta" style="rounded=0;whiteSpace=wrap;html=1;fontSize=11;" parent="1" vertex="1">
          <mxGeometry x="310" y="5850" width="160" height="20" as="geometry" />
        </mxCell>
        <mxCell id="3KIS9S7qjUf6mMkr2eS_-163" value="- marca: string?&lt;br&gt;- tipo: string?&lt;br&gt;- hasCampanello: bool" style="rounded=0;whiteSpace=wrap;html=1;fontSize=11;align=left;" parent="1" vertex="1">
          <mxGeometry x="310" y="5870" width="160" height="50" as="geometry" />
        </mxCell>
        <mxCell id="3KIS9S7qjUf6mMkr2eS_-164" value="+ Bicicletta()&lt;br&gt;+ Bicicletta(string, string, bool)&lt;br&gt;+ Bicicletta(string, bool)&lt;br&gt;..." style="rounded=0;whiteSpace=wrap;html=1;fontSize=11;align=left;" parent="1" vertex="1">
          <mxGeometry x="310" y="5920" width="160" height="70" as="geometry" />
        </mxCell>
        <mxCell id="3KIS9S7qjUf6mMkr2eS_-174" style="edgeStyle=orthogonalEdgeStyle;rounded=0;orthogonalLoop=1;jettySize=auto;html=1;entryX=0.5;entryY=1;entryDx=0;entryDy=0;fontSize=11;endArrow=block;endFill=0;" parent="1" source="3KIS9S7qjUf6mMkr2eS_-165" target="3KIS9S7qjUf6mMkr2eS_-173" edge="1">
          <mxGeometry relative="1" as="geometry" />
        </mxCell>
        <mxCell id="3KIS9S7qjUf6mMkr2eS_-165" value="Studente" style="rounded=0;whiteSpace=wrap;html=1;fontSize=11;" parent="1" vertex="1">
          <mxGeometry x="303.5" y="6200" width="160" height="20" as="geometry" />
        </mxCell>
        <mxCell id="3KIS9S7qjUf6mMkr2eS_-166" value="- matricola: string?" style="rounded=0;whiteSpace=wrap;html=1;fontSize=11;align=left;" parent="1" vertex="1">
          <mxGeometry x="303.5" y="6220" width="160" height="30" as="geometry" />
        </mxCell>
        <mxCell id="3KIS9S7qjUf6mMkr2eS_-167" value="+ Studente()" style="rounded=0;whiteSpace=wrap;html=1;fontSize=11;align=left;" parent="1" vertex="1">
          <mxGeometry x="304" y="6250" width="160" height="30" as="geometry" />
        </mxCell>
        <mxCell id="3KIS9S7qjUf6mMkr2eS_-175" style="edgeStyle=orthogonalEdgeStyle;rounded=0;orthogonalLoop=1;jettySize=auto;html=1;entryX=0.5;entryY=1;entryDx=0;entryDy=0;fontSize=11;endArrow=block;endFill=0;" parent="1" source="3KIS9S7qjUf6mMkr2eS_-168" target="3KIS9S7qjUf6mMkr2eS_-173" edge="1">
          <mxGeometry relative="1" as="geometry" />
        </mxCell>
        <mxCell id="3KIS9S7qjUf6mMkr2eS_-168" value="Docente" style="rounded=0;whiteSpace=wrap;html=1;fontSize=11;" parent="1" vertex="1">
          <mxGeometry x="589" y="6200" width="160" height="20" as="geometry" />
        </mxCell>
        <mxCell id="3KIS9S7qjUf6mMkr2eS_-169" value="- dipartimento: string?&lt;br&gt;- materia: string?" style="rounded=0;whiteSpace=wrap;html=1;fontSize=11;align=left;" parent="1" vertex="1">
          <mxGeometry x="589" y="6220" width="160" height="40" as="geometry" />
        </mxCell>
        <mxCell id="3KIS9S7qjUf6mMkr2eS_-170" value="+ Docente()" style="rounded=0;whiteSpace=wrap;html=1;fontSize=11;align=left;" parent="1" vertex="1">
          <mxGeometry x="589" y="6260" width="160" height="30" as="geometry" />
        </mxCell>
        <mxCell id="3KIS9S7qjUf6mMkr2eS_-171" value="Persona" style="rounded=0;whiteSpace=wrap;html=1;fontSize=11;" parent="1" vertex="1">
          <mxGeometry x="450" y="6040" width="160" height="20" as="geometry" />
        </mxCell>
        <mxCell id="3KIS9S7qjUf6mMkr2eS_-172" value="- nome: string?&lt;br&gt;- cognome: string?" style="rounded=0;whiteSpace=wrap;html=1;fontSize=11;align=left;" parent="1" vertex="1">
          <mxGeometry x="450" y="6060" width="160" height="50" as="geometry" />
        </mxCell>
        <mxCell id="3KIS9S7qjUf6mMkr2eS_-173" value="+ Persona()&lt;br&gt;+ stampaDettaglio()" style="rounded=0;whiteSpace=wrap;html=1;fontSize=11;align=left;" parent="1" vertex="1">
          <mxGeometry x="450" y="6110" width="160" height="30" as="geometry" />
        </mxCell>
        <mxCell id="3KIS9S7qjUf6mMkr2eS_-176" value="&amp;lt;&amp;lt;abstract&amp;gt;&amp;gt;&lt;br&gt;Animale" style="rounded=0;whiteSpace=wrap;html=1;fontSize=11;" parent="1" vertex="1">
          <mxGeometry x="410" y="6470" width="120" height="60" as="geometry" />
        </mxCell>
        <mxCell id="3KIS9S7qjUf6mMkr2eS_-181" style="edgeStyle=orthogonalEdgeStyle;rounded=0;orthogonalLoop=1;jettySize=auto;html=1;entryX=0.5;entryY=1;entryDx=0;entryDy=0;fontSize=11;endArrow=block;endFill=0;" parent="1" source="3KIS9S7qjUf6mMkr2eS_-177" target="3KIS9S7qjUf6mMkr2eS_-176" edge="1">
          <mxGeometry relative="1" as="geometry">
            <Array as="points">
              <mxPoint x="330" y="6550" />
              <mxPoint x="470" y="6550" />
            </Array>
          </mxGeometry>
        </mxCell>
        <mxCell id="3KIS9S7qjUf6mMkr2eS_-177" value="Cane" style="rounded=0;whiteSpace=wrap;html=1;fontSize=11;fillColor=#fff2cc;strokeColor=#d6b656;" parent="1" vertex="1">
          <mxGeometry x="270" y="6580" width="120" height="60" as="geometry" />
        </mxCell>
        <mxCell id="3KIS9S7qjUf6mMkr2eS_-182" style="edgeStyle=orthogonalEdgeStyle;rounded=0;orthogonalLoop=1;jettySize=auto;html=1;fontSize=11;endArrow=block;endFill=0;" parent="1" source="3KIS9S7qjUf6mMkr2eS_-179" edge="1">
          <mxGeometry relative="1" as="geometry">
            <mxPoint x="470" y="6530" as="targetPoint" />
          </mxGeometry>
        </mxCell>
        <mxCell id="3KIS9S7qjUf6mMkr2eS_-179" value="Gatto" style="rounded=0;whiteSpace=wrap;html=1;fontSize=11;fillColor=#fff2cc;strokeColor=#d6b656;" parent="1" vertex="1">
          <mxGeometry x="410" y="6580" width="120" height="60" as="geometry" />
        </mxCell>
        <mxCell id="3KIS9S7qjUf6mMkr2eS_-183" style="edgeStyle=orthogonalEdgeStyle;rounded=0;orthogonalLoop=1;jettySize=auto;html=1;entryX=0.5;entryY=1;entryDx=0;entryDy=0;fontSize=11;endArrow=block;endFill=0;" parent="1" source="3KIS9S7qjUf6mMkr2eS_-180" target="3KIS9S7qjUf6mMkr2eS_-176" edge="1">
          <mxGeometry relative="1" as="geometry">
            <Array as="points">
              <mxPoint x="612" y="6550" />
              <mxPoint x="470" y="6550" />
            </Array>
          </mxGeometry>
        </mxCell>
        <mxCell id="3KIS9S7qjUf6mMkr2eS_-180" value="Coccodrillo" style="rounded=0;whiteSpace=wrap;html=1;fontSize=11;fillColor=#fff2cc;strokeColor=#d6b656;" parent="1" vertex="1">
          <mxGeometry x="552" y="6580" width="120" height="60" as="geometry" />
        </mxCell>
        <mxCell id="3KIS9S7qjUf6mMkr2eS_-185" style="edgeStyle=orthogonalEdgeStyle;rounded=0;orthogonalLoop=1;jettySize=auto;html=1;fontSize=11;endArrow=block;endFill=0;" parent="1" source="3KIS9S7qjUf6mMkr2eS_-184" edge="1">
          <mxGeometry relative="1" as="geometry">
            <mxPoint x="450" y="6810" as="targetPoint" />
          </mxGeometry>
        </mxCell>
        <mxCell id="3KIS9S7qjUf6mMkr2eS_-184" value="Veicolo" style="rounded=0;whiteSpace=wrap;html=1;fontSize=11;" parent="1" vertex="1">
          <mxGeometry x="390" y="6850" width="120" height="60" as="geometry" />
        </mxCell>
        <mxCell id="3KIS9S7qjUf6mMkr2eS_-186" value="Object" style="rounded=0;whiteSpace=wrap;html=1;fontSize=11;" parent="1" vertex="1">
          <mxGeometry x="390" y="6750" width="120" height="60" as="geometry" />
        </mxCell>
        <mxCell id="3KIS9S7qjUf6mMkr2eS_-187" value="Netflix" style="rounded=0;whiteSpace=wrap;html=1;fontSize=11;fillColor=#f8cecc;strokeColor=#b85450;" parent="1" vertex="1">
          <mxGeometry x="500" y="7050" width="120" height="60" as="geometry" />
        </mxCell>
        <mxCell id="3KIS9S7qjUf6mMkr2eS_-188" value="&lt;font style=&quot;font-size: 8px;&quot;&gt;Via = &quot;Via le mani dal naso&quot;,&lt;br&gt;Cap = &quot;11111&quot;,&lt;br&gt;Citta = &quot;Farindola&quot;,&lt;br&gt;Provincia = &quot;CH&quot;&lt;/font&gt;" style="rounded=0;whiteSpace=wrap;html=1;fontSize=11;fillColor=#fff2cc;strokeColor=#d6b656;align=left;" parent="1" vertex="1">
          <mxGeometry x="500" y="7110" width="120" height="60" as="geometry" />
        </mxCell>
        <mxCell id="3KIS9S7qjUf6mMkr2eS_-189" value="Chrome" style="rounded=0;whiteSpace=wrap;html=1;fontSize=11;fillColor=#f8cecc;strokeColor=#b85450;" parent="1" vertex="1">
          <mxGeometry x="500" y="7170" width="120" height="60" as="geometry" />
        </mxCell>
        <mxCell id="3KIS9S7qjUf6mMkr2eS_-190" value="&lt;div style=&quot;font-size: 8px;&quot;&gt;&lt;font style=&quot;font-size: 8px;&quot;&gt;&lt;br&gt;&lt;/font&gt;&lt;/div&gt;&lt;div style=&quot;font-size: 8px;&quot;&gt;&lt;font style=&quot;font-size: 8px;&quot;&gt;Nominativo = &quot;Giovanni Pace&quot;,&lt;/font&gt;&lt;/div&gt;&lt;div style=&quot;font-size: 8px;&quot;&gt;&lt;font style=&quot;font-size: 8px;&quot;&gt;Spedizione = 0x1234&lt;/font&gt;&lt;/div&gt;&lt;div style=&quot;font-size: 8px;&quot;&gt;&lt;font style=&quot;font-size: 8px;&quot;&gt;Fatturazione = null&lt;/font&gt;&lt;/div&gt;" style="rounded=0;whiteSpace=wrap;html=1;fontSize=11;align=left;" parent="1" vertex="1">
          <mxGeometry x="500" y="7230" width="120" height="60" as="geometry" />
        </mxCell>
        <mxCell id="3KIS9S7qjUf6mMkr2eS_-191" value="" style="rounded=0;whiteSpace=wrap;html=1;fontSize=11;" parent="1" vertex="1">
          <mxGeometry x="500" y="7290" width="120" height="60" as="geometry" />
        </mxCell>
        <mxCell id="3KIS9S7qjUf6mMkr2eS_-192" value="" style="rounded=0;whiteSpace=wrap;html=1;fontSize=11;" parent="1" vertex="1">
          <mxGeometry x="500" y="7350" width="120" height="60" as="geometry" />
        </mxCell>
        <mxCell id="3KIS9S7qjUf6mMkr2eS_-194" style="edgeStyle=orthogonalEdgeStyle;rounded=0;orthogonalLoop=1;jettySize=auto;html=1;fontSize=11;endArrow=classic;endFill=1;" parent="1" source="3KIS9S7qjUf6mMkr2eS_-193" target="3KIS9S7qjUf6mMkr2eS_-188" edge="1">
          <mxGeometry relative="1" as="geometry" />
        </mxCell>
        <mxCell id="3KIS9S7qjUf6mMkr2eS_-193" value="indi" style="whiteSpace=wrap;html=1;aspect=fixed;fontSize=11;" parent="1" vertex="1">
          <mxGeometry x="270" y="7140" width="80" height="80" as="geometry" />
        </mxCell>
        <mxCell id="3KIS9S7qjUf6mMkr2eS_-196" style="edgeStyle=orthogonalEdgeStyle;rounded=0;orthogonalLoop=1;jettySize=auto;html=1;entryX=0;entryY=0.5;entryDx=0;entryDy=0;fontSize=8;endArrow=classic;endFill=1;" parent="1" source="3KIS9S7qjUf6mMkr2eS_-195" target="3KIS9S7qjUf6mMkr2eS_-190" edge="1">
          <mxGeometry relative="1" as="geometry" />
        </mxCell>
        <mxCell id="3KIS9S7qjUf6mMkr2eS_-195" value="gio" style="whiteSpace=wrap;html=1;aspect=fixed;fontSize=11;" parent="1" vertex="1">
          <mxGeometry x="270" y="7260" width="80" height="80" as="geometry" />
        </mxCell>
        <mxCell id="3KIS9S7qjUf6mMkr2eS_-197" value="0x1234" style="text;html=1;strokeColor=none;fillColor=none;align=center;verticalAlign=middle;whiteSpace=wrap;rounded=0;fontSize=8;" parent="1" vertex="1">
          <mxGeometry x="629" y="7110" width="60" height="30" as="geometry" />
        </mxCell>
        <mxCell id="3KIS9S7qjUf6mMkr2eS_-198" value="" style="endArrow=classic;html=1;rounded=0;fontSize=8;entryX=1;entryY=0.5;entryDx=0;entryDy=0;" parent="1" target="3KIS9S7qjUf6mMkr2eS_-188" edge="1">
          <mxGeometry width="50" height="50" relative="1" as="geometry">
            <mxPoint x="620" y="7270" as="sourcePoint" />
            <mxPoint x="670" y="7220" as="targetPoint" />
            <Array as="points">
              <mxPoint x="660" y="7270" />
              <mxPoint x="660" y="7140" />
            </Array>
          </mxGeometry>
        </mxCell>
        <mxCell id="3KIS9S7qjUf6mMkr2eS_-199" value="Netflix" style="rounded=0;whiteSpace=wrap;html=1;fontSize=11;fillColor=#f8cecc;strokeColor=#b85450;" parent="1" vertex="1">
          <mxGeometry x="508.5" y="7430" width="120" height="60" as="geometry" />
        </mxCell>
        <mxCell id="3KIS9S7qjUf6mMkr2eS_-200" value="&lt;span style=&quot;font-size: 8px;&quot;&gt;Via = &quot;Via le mani dal naso&quot;,&lt;/span&gt;&lt;br style=&quot;font-size: 8px;&quot;&gt;&lt;span style=&quot;font-size: 8px;&quot;&gt;Cap = &quot;11111&quot;,&lt;/span&gt;&lt;br style=&quot;font-size: 8px;&quot;&gt;&lt;span style=&quot;font-size: 8px;&quot;&gt;Citta = &quot;Farindola&quot;,&lt;/span&gt;&lt;br style=&quot;font-size: 8px;&quot;&gt;&lt;span style=&quot;font-size: 8px;&quot;&gt;Provincia = &quot;CH&quot;&lt;/span&gt;" style="rounded=0;whiteSpace=wrap;html=1;fontSize=11;align=left;fillColor=#fff2cc;strokeColor=#d6b656;" parent="1" vertex="1">
          <mxGeometry x="508.5" y="7610" width="120" height="60" as="geometry" />
        </mxCell>
        <mxCell id="3KIS9S7qjUf6mMkr2eS_-201" value="Chrome" style="rounded=0;whiteSpace=wrap;html=1;fontSize=11;fillColor=#f8cecc;strokeColor=#b85450;" parent="1" vertex="1">
          <mxGeometry x="508.5" y="7550" width="120" height="60" as="geometry" />
        </mxCell>
        <mxCell id="3KIS9S7qjUf6mMkr2eS_-202" value="&lt;div style=&quot;font-size: 8px;&quot;&gt;&lt;font style=&quot;font-size: 8px;&quot;&gt;&lt;br&gt;&lt;/font&gt;&lt;/div&gt;&lt;div style=&quot;font-size: 8px;&quot;&gt;&lt;font style=&quot;font-size: 8px;&quot;&gt;Nominativo = &quot;Giovanni Pace&quot;,&lt;/font&gt;&lt;/div&gt;&lt;div style=&quot;font-size: 8px;&quot;&gt;&lt;font style=&quot;font-size: 8px;&quot;&gt;Spedizione = 0x127&lt;/font&gt;&lt;/div&gt;&lt;div style=&quot;font-size: 8px;&quot;&gt;&lt;font style=&quot;font-size: 8px;&quot;&gt;Fatturazione = null&lt;/font&gt;&lt;/div&gt;" style="rounded=0;whiteSpace=wrap;html=1;fontSize=11;align=left;fillColor=#fff2cc;strokeColor=#d6b656;" parent="1" vertex="1">
          <mxGeometry x="509" y="7490" width="120" height="60" as="geometry" />
        </mxCell>
        <mxCell id="3KIS9S7qjUf6mMkr2eS_-203" value="" style="rounded=0;whiteSpace=wrap;html=1;fontSize=11;" parent="1" vertex="1">
          <mxGeometry x="508.5" y="7670" width="120" height="60" as="geometry" />
        </mxCell>
        <mxCell id="3KIS9S7qjUf6mMkr2eS_-204" value="" style="rounded=0;whiteSpace=wrap;html=1;fontSize=11;" parent="1" vertex="1">
          <mxGeometry x="508.5" y="7730" width="120" height="60" as="geometry" />
        </mxCell>
        <mxCell id="3KIS9S7qjUf6mMkr2eS_-206" style="edgeStyle=orthogonalEdgeStyle;rounded=0;orthogonalLoop=1;jettySize=auto;html=1;entryX=0.024;entryY=0.444;entryDx=0;entryDy=0;entryPerimeter=0;fontSize=8;endArrow=classic;endFill=1;" parent="1" source="3KIS9S7qjUf6mMkr2eS_-205" target="3KIS9S7qjUf6mMkr2eS_-202" edge="1">
          <mxGeometry relative="1" as="geometry" />
        </mxCell>
        <mxCell id="3KIS9S7qjUf6mMkr2eS_-205" value="gio" style="whiteSpace=wrap;html=1;aspect=fixed;fontSize=8;" parent="1" vertex="1">
          <mxGeometry x="288" y="7519" width="80" height="80" as="geometry" />
        </mxCell>
        <mxCell id="3KIS9S7qjUf6mMkr2eS_-207" value="" style="endArrow=classic;html=1;rounded=0;fontSize=8;entryX=1;entryY=0.5;entryDx=0;entryDy=0;" parent="1" edge="1">
          <mxGeometry width="50" height="50" relative="1" as="geometry">
            <mxPoint x="585" y="7524" as="sourcePoint" />
            <mxPoint x="638.5" y="7640" as="targetPoint" />
            <Array as="points">
              <mxPoint x="690" y="7524" />
              <mxPoint x="690" y="7640" />
            </Array>
          </mxGeometry>
        </mxCell>
        <mxCell id="3KIS9S7qjUf6mMkr2eS_-208" value="0x127" style="text;html=1;strokeColor=none;fillColor=none;align=center;verticalAlign=middle;whiteSpace=wrap;rounded=0;fontSize=8;" parent="1" vertex="1">
          <mxGeometry x="629" y="7610" width="60" height="30" as="geometry" />
        </mxCell>
        <mxCell id="3KIS9S7qjUf6mMkr2eS_-216" style="edgeStyle=orthogonalEdgeStyle;rounded=0;orthogonalLoop=1;jettySize=auto;html=1;fontSize=8;endArrow=block;endFill=0;" parent="1" source="3KIS9S7qjUf6mMkr2eS_-209" target="3KIS9S7qjUf6mMkr2eS_-214" edge="1">
          <mxGeometry relative="1" as="geometry" />
        </mxCell>
        <mxCell id="3KIS9S7qjUf6mMkr2eS_-209" value="Codice Fiscale" style="rounded=0;whiteSpace=wrap;html=1;fontSize=8;" parent="1" vertex="1">
          <mxGeometry x="590" y="7880" width="120" height="20" as="geometry" />
        </mxCell>
        <mxCell id="3KIS9S7qjUf6mMkr2eS_-217" style="edgeStyle=orthogonalEdgeStyle;rounded=0;orthogonalLoop=1;jettySize=auto;html=1;entryX=0.5;entryY=1;entryDx=0;entryDy=0;fontSize=8;endArrow=block;endFill=0;" parent="1" source="3KIS9S7qjUf6mMkr2eS_-210" target="3KIS9S7qjUf6mMkr2eS_-214" edge="1">
          <mxGeometry relative="1" as="geometry" />
        </mxCell>
        <mxCell id="3KIS9S7qjUf6mMkr2eS_-210" value="Carta Identita" style="rounded=0;whiteSpace=wrap;html=1;fontSize=8;" parent="1" vertex="1">
          <mxGeometry x="590" y="7985" width="120" height="20" as="geometry" />
        </mxCell>
        <mxCell id="3KIS9S7qjUf6mMkr2eS_-211" value="&lt;div style=&quot;text-align: left;&quot;&gt;&lt;br&gt;&lt;/div&gt;" style="rounded=0;whiteSpace=wrap;html=1;fontSize=8;" parent="1" vertex="1">
          <mxGeometry x="590" y="7900" width="120" height="40" as="geometry" />
        </mxCell>
        <mxCell id="3KIS9S7qjUf6mMkr2eS_-212" value="&lt;div style=&quot;text-align: left;&quot;&gt;&lt;span style=&quot;background-color: initial;&quot;&gt;- data_emis : DateTime&lt;/span&gt;&lt;br&gt;&lt;/div&gt;&lt;div style=&quot;text-align: left;&quot;&gt;&lt;span style=&quot;background-color: initial;&quot;&gt;- luogo_emis : string&lt;/span&gt;&lt;/div&gt;" style="rounded=0;whiteSpace=wrap;html=1;fontSize=8;" parent="1" vertex="1">
          <mxGeometry x="590" y="8005" width="120" height="50" as="geometry" />
        </mxCell>
        <mxCell id="3KIS9S7qjUf6mMkr2eS_-213" value="Codice Fiscale" style="rounded=0;whiteSpace=wrap;html=1;fontSize=8;" parent="1" vertex="1">
          <mxGeometry x="590" y="7880" width="120" height="20" as="geometry" />
        </mxCell>
        <mxCell id="3KIS9S7qjUf6mMkr2eS_-214" value="&lt;div style=&quot;text-align: left;&quot;&gt;&lt;span style=&quot;background-color: initial;&quot;&gt;- codice: string&lt;/span&gt;&lt;/div&gt;&lt;div style=&quot;text-align: left;&quot;&gt;&lt;span style=&quot;background-color: initial;&quot;&gt;- data_scad : DateTime&lt;/span&gt;&lt;/div&gt;" style="rounded=0;whiteSpace=wrap;html=1;fontSize=8;" parent="1" vertex="1">
          <mxGeometry x="590" y="7900" width="120" height="40" as="geometry" />
        </mxCell>
        <mxCell id="3KIS9S7qjUf6mMkr2eS_-223" style="edgeStyle=orthogonalEdgeStyle;rounded=0;orthogonalLoop=1;jettySize=auto;html=1;fontSize=8;endArrow=block;endFill=0;" parent="1" source="3KIS9S7qjUf6mMkr2eS_-224" target="3KIS9S7qjUf6mMkr2eS_-227" edge="1">
          <mxGeometry relative="1" as="geometry" />
        </mxCell>
        <mxCell id="3KIS9S7qjUf6mMkr2eS_-224" value="Codice Fiscale" style="rounded=0;whiteSpace=wrap;html=1;fontSize=8;" parent="1" vertex="1">
          <mxGeometry x="354" y="7880" width="120" height="20" as="geometry" />
        </mxCell>
        <mxCell id="3KIS9S7qjUf6mMkr2eS_-225" value="&lt;div style=&quot;text-align: left;&quot;&gt;&lt;br&gt;&lt;/div&gt;" style="rounded=0;whiteSpace=wrap;html=1;fontSize=8;" parent="1" vertex="1">
          <mxGeometry x="354" y="7900" width="120" height="40" as="geometry" />
        </mxCell>
        <mxCell id="3KIS9S7qjUf6mMkr2eS_-226" value="Persona" style="rounded=0;whiteSpace=wrap;html=1;fontSize=8;" parent="1" vertex="1">
          <mxGeometry x="354" y="7880" width="120" height="20" as="geometry" />
        </mxCell>
        <mxCell id="3KIS9S7qjUf6mMkr2eS_-229" style="edgeStyle=orthogonalEdgeStyle;rounded=0;orthogonalLoop=1;jettySize=auto;html=1;entryX=0;entryY=0.5;entryDx=0;entryDy=0;fontSize=8;endArrow=classic;endFill=1;" parent="1" source="3KIS9S7qjUf6mMkr2eS_-227" target="3KIS9S7qjUf6mMkr2eS_-210" edge="1">
          <mxGeometry relative="1" as="geometry" />
        </mxCell>
        <mxCell id="3KIS9S7qjUf6mMkr2eS_-230" style="edgeStyle=orthogonalEdgeStyle;rounded=0;orthogonalLoop=1;jettySize=auto;html=1;entryX=0;entryY=0.5;entryDx=0;entryDy=0;fontSize=8;endArrow=classic;endFill=1;" parent="1" source="3KIS9S7qjUf6mMkr2eS_-227" target="3KIS9S7qjUf6mMkr2eS_-213" edge="1">
          <mxGeometry relative="1" as="geometry">
            <Array as="points">
              <mxPoint x="532" y="7920" />
              <mxPoint x="532" y="7890" />
            </Array>
          </mxGeometry>
        </mxCell>
        <mxCell id="3KIS9S7qjUf6mMkr2eS_-227" value="&lt;div style=&quot;text-align: left;&quot;&gt;&lt;span style=&quot;background-color: initial;&quot;&gt;- nome: string&lt;/span&gt;&lt;/div&gt;&lt;div style=&quot;text-align: left;&quot;&gt;&lt;span style=&quot;background-color: initial;&quot;&gt;- cognome: string&lt;/span&gt;&lt;/div&gt;&lt;div style=&quot;text-align: left;&quot;&gt;- identita: CartaIdentita&lt;/div&gt;&lt;div style=&quot;text-align: left;&quot;&gt;- fiscale: CodiceFiscale&lt;/div&gt;" style="rounded=0;whiteSpace=wrap;html=1;fontSize=8;" parent="1" vertex="1">
          <mxGeometry x="354" y="7900" width="120" height="60" as="geometry" />
        </mxCell>
        <mxCell id="3KIS9S7qjUf6mMkr2eS_-231" value="0,1" style="text;html=1;strokeColor=none;fillColor=none;align=center;verticalAlign=middle;whiteSpace=wrap;rounded=0;fontSize=8;" parent="1" vertex="1">
          <mxGeometry x="566" y="7975" width="20" height="10" as="geometry" />
        </mxCell>
        <mxCell id="3KIS9S7qjUf6mMkr2eS_-232" value="0,1" style="text;html=1;strokeColor=none;fillColor=none;align=center;verticalAlign=middle;whiteSpace=wrap;rounded=0;fontSize=8;" parent="1" vertex="1">
          <mxGeometry x="566" y="7870" width="20" height="10" as="geometry" />
        </mxCell>
        <mxCell id="3KIS9S7qjUf6mMkr2eS_-233" value="Netflix" style="rounded=0;whiteSpace=wrap;html=1;fillColor=#f8cecc;strokeColor=#b85450;" parent="1" vertex="1">
          <mxGeometry x="459" y="8170" width="120" height="60" as="geometry" />
        </mxCell>
        <mxCell id="3KIS9S7qjUf6mMkr2eS_-234" value="Maserati" style="rounded=0;whiteSpace=wrap;html=1;fillColor=#fff2cc;strokeColor=#d6b656;" parent="1" vertex="1">
          <mxGeometry x="459" y="8230" width="91" height="60" as="geometry" />
        </mxCell>
        <mxCell id="3KIS9S7qjUf6mMkr2eS_-235" value="Instagram" style="rounded=0;whiteSpace=wrap;html=1;fillColor=#f8cecc;strokeColor=#b85450;" parent="1" vertex="1">
          <mxGeometry x="459" y="8290" width="120" height="60" as="geometry" />
        </mxCell>
        <mxCell id="3KIS9S7qjUf6mMkr2eS_-238" value="" style="rounded=0;whiteSpace=wrap;html=1;" parent="1" vertex="1">
          <mxGeometry x="459" y="8470" width="120" height="60" as="geometry" />
        </mxCell>
        <mxCell id="3KIS9S7qjUf6mMkr2eS_-252" style="edgeStyle=orthogonalEdgeStyle;rounded=0;orthogonalLoop=1;jettySize=auto;html=1;entryX=0;entryY=0.5;entryDx=0;entryDy=0;fontSize=11;endArrow=classic;endFill=1;" parent="1" source="3KIS9S7qjUf6mMkr2eS_-240" target="3KIS9S7qjUf6mMkr2eS_-234" edge="1">
          <mxGeometry relative="1" as="geometry" />
        </mxCell>
        <mxCell id="3KIS9S7qjUf6mMkr2eS_-240" value="Elenco&lt;br&gt;0x1234" style="whiteSpace=wrap;html=1;aspect=fixed;" parent="1" vertex="1">
          <mxGeometry x="185" y="8270" width="80" height="80" as="geometry" />
        </mxCell>
        <mxCell id="3KIS9S7qjUf6mMkr2eS_-248" value="Lamborghini" style="rounded=0;whiteSpace=wrap;html=1;fillColor=#fff2cc;strokeColor=#d6b656;" parent="1" vertex="1">
          <mxGeometry x="480" y="8350" width="99" height="60" as="geometry" />
        </mxCell>
        <mxCell id="3KIS9S7qjUf6mMkr2eS_-249" value="BMW" style="rounded=0;whiteSpace=wrap;html=1;fillColor=#fff2cc;strokeColor=#d6b656;" parent="1" vertex="1">
          <mxGeometry x="459" y="8410" width="101" height="60" as="geometry" />
        </mxCell>
        <mxCell id="3KIS9S7qjUf6mMkr2eS_-250" value="" style="rounded=0;whiteSpace=wrap;html=1;" parent="1" vertex="1">
          <mxGeometry x="459" y="8530" width="120" height="60" as="geometry" />
        </mxCell>
        <mxCell id="3KIS9S7qjUf6mMkr2eS_-251" value="&lt;font style=&quot;font-size: 11px;&quot;&gt;Maserati, Lamborghini&lt;br&gt;BMW&lt;br&gt;FIAT&lt;br&gt;&lt;/font&gt;" style="text;html=1;strokeColor=none;fillColor=none;align=center;verticalAlign=middle;whiteSpace=wrap;rounded=0;fontSize=8;" parent="1" vertex="1">
          <mxGeometry x="120" y="8140" width="60" height="30" as="geometry" />
        </mxCell>
        <mxCell id="3KIS9S7qjUf6mMkr2eS_-254" value="0x1234" style="text;html=1;strokeColor=none;fillColor=none;align=center;verticalAlign=middle;whiteSpace=wrap;rounded=0;" parent="1" vertex="1">
          <mxGeometry x="579" y="8230" width="60" height="30" as="geometry" />
        </mxCell>
        <mxCell id="3KIS9S7qjUf6mMkr2eS_-255" value="0x1235" style="text;html=1;strokeColor=none;fillColor=none;align=center;verticalAlign=middle;whiteSpace=wrap;rounded=0;" parent="1" vertex="1">
          <mxGeometry x="579" y="8290" width="60" height="30" as="geometry" />
        </mxCell>
        <mxCell id="3KIS9S7qjUf6mMkr2eS_-256" value="0x1236" style="text;html=1;strokeColor=none;fillColor=none;align=center;verticalAlign=middle;whiteSpace=wrap;rounded=0;" parent="1" vertex="1">
          <mxGeometry x="579" y="8350" width="60" height="30" as="geometry" />
        </mxCell>
        <mxCell id="3KIS9S7qjUf6mMkr2eS_-257" value="0x1237" style="text;html=1;strokeColor=none;fillColor=none;align=center;verticalAlign=middle;whiteSpace=wrap;rounded=0;" parent="1" vertex="1">
          <mxGeometry x="579" y="8410" width="60" height="30" as="geometry" />
        </mxCell>
        <mxCell id="3KIS9S7qjUf6mMkr2eS_-258" value="0x1238" style="text;html=1;strokeColor=none;fillColor=none;align=center;verticalAlign=middle;whiteSpace=wrap;rounded=0;" parent="1" vertex="1">
          <mxGeometry x="579" y="8470" width="60" height="30" as="geometry" />
        </mxCell>
        <mxCell id="3KIS9S7qjUf6mMkr2eS_-259" value="0x1239" style="text;html=1;strokeColor=none;fillColor=none;align=center;verticalAlign=middle;whiteSpace=wrap;rounded=0;" parent="1" vertex="1">
          <mxGeometry x="579" y="8530" width="60" height="30" as="geometry" />
        </mxCell>
        <mxCell id="3KIS9S7qjUf6mMkr2eS_-260" value="0x1232" style="text;html=1;strokeColor=none;fillColor=none;align=center;verticalAlign=middle;whiteSpace=wrap;rounded=0;" parent="1" vertex="1">
          <mxGeometry x="579" y="8170" width="60" height="30" as="geometry" />
        </mxCell>
        <mxCell id="3KIS9S7qjUf6mMkr2eS_-262" style="edgeStyle=orthogonalEdgeStyle;rounded=0;orthogonalLoop=1;jettySize=auto;html=1;entryX=0.999;entryY=0.586;entryDx=0;entryDy=0;entryPerimeter=0;fontSize=11;endArrow=classic;endFill=1;" parent="1" source="3KIS9S7qjUf6mMkr2eS_-261" target="3KIS9S7qjUf6mMkr2eS_-248" edge="1">
          <mxGeometry relative="1" as="geometry">
            <Array as="points">
              <mxPoint x="670" y="8261.255" />
              <mxPoint x="670" y="8385" />
            </Array>
          </mxGeometry>
        </mxCell>
        <mxCell id="3KIS9S7qjUf6mMkr2eS_-261" value="&lt;span style=&quot;font-size: 12px; background-color: rgb(248, 249, 250);&quot;&gt;0x1236&lt;/span&gt;" style="rounded=0;whiteSpace=wrap;html=1;fontSize=11;rotation=-90;fillColor=#dae8fc;strokeColor=#6c8ebf;" parent="1" vertex="1">
          <mxGeometry x="533.13" y="8246.88" width="62.5" height="28.75" as="geometry" />
        </mxCell>
        <mxCell id="3KIS9S7qjUf6mMkr2eS_-264" style="edgeStyle=orthogonalEdgeStyle;rounded=0;orthogonalLoop=1;jettySize=auto;html=1;entryX=0;entryY=0.5;entryDx=0;entryDy=0;fontSize=11;endArrow=classic;endFill=1;" parent="1" source="3KIS9S7qjUf6mMkr2eS_-263" target="3KIS9S7qjUf6mMkr2eS_-249" edge="1">
          <mxGeometry relative="1" as="geometry">
            <Array as="points">
              <mxPoint x="439" y="8380" />
              <mxPoint x="439" y="8440" />
            </Array>
          </mxGeometry>
        </mxCell>
        <mxCell id="3KIS9S7qjUf6mMkr2eS_-263" value="&lt;span style=&quot;font-size: 12px; background-color: rgb(248, 249, 250);&quot;&gt;0x1237&lt;/span&gt;" style="rounded=0;whiteSpace=wrap;html=1;fontSize=11;rotation=-90;fillColor=#dae8fc;strokeColor=#6c8ebf;" parent="1" vertex="1">
          <mxGeometry x="440" y="8365.63" width="62.5" height="28.75" as="geometry" />
        </mxCell>
        <mxCell id="3KIS9S7qjUf6mMkr2eS_-270" style="edgeStyle=orthogonalEdgeStyle;rounded=0;orthogonalLoop=1;jettySize=auto;html=1;entryX=1;entryY=0.5;entryDx=0;entryDy=0;fontSize=11;endArrow=classic;endFill=1;" parent="1" source="3KIS9S7qjUf6mMkr2eS_-267" target="3KIS9S7qjUf6mMkr2eS_-268" edge="1">
          <mxGeometry relative="1" as="geometry">
            <Array as="points">
              <mxPoint x="670" y="8440.005" />
              <mxPoint x="670" y="8500" />
            </Array>
          </mxGeometry>
        </mxCell>
        <mxCell id="3KIS9S7qjUf6mMkr2eS_-267" value="&lt;span style=&quot;font-size: 12px; background-color: rgb(248, 249, 250);&quot;&gt;0x1238&lt;/span&gt;" style="rounded=0;whiteSpace=wrap;html=1;fontSize=11;rotation=-90;fillColor=#dae8fc;strokeColor=#6c8ebf;" parent="1" vertex="1">
          <mxGeometry x="533.13" y="8425.63" width="62.5" height="28.75" as="geometry" />
        </mxCell>
        <mxCell id="3KIS9S7qjUf6mMkr2eS_-268" value="FIAT" style="rounded=0;whiteSpace=wrap;html=1;fillColor=#fff2cc;strokeColor=#d6b656;" parent="1" vertex="1">
          <mxGeometry x="480" y="8470" width="99" height="60" as="geometry" />
        </mxCell>
        <mxCell id="3KIS9S7qjUf6mMkr2eS_-271" style="edgeStyle=orthogonalEdgeStyle;rounded=0;orthogonalLoop=1;jettySize=auto;html=1;fontSize=11;endArrow=classic;endFill=1;" parent="1" source="3KIS9S7qjUf6mMkr2eS_-269" edge="1">
          <mxGeometry relative="1" as="geometry">
            <mxPoint x="370" y="8500.005" as="targetPoint" />
          </mxGeometry>
        </mxCell>
        <mxCell id="3KIS9S7qjUf6mMkr2eS_-269" value="&lt;span style=&quot;font-size: 12px; background-color: rgb(248, 249, 250);&quot;&gt;null&lt;/span&gt;" style="rounded=0;whiteSpace=wrap;html=1;fontSize=11;rotation=-90;fillColor=#dae8fc;strokeColor=#6c8ebf;" parent="1" vertex="1">
          <mxGeometry x="440" y="8485.63" width="62.5" height="28.75" as="geometry" />
        </mxCell>
        <mxCell id="3KIS9S7qjUf6mMkr2eS_-272" value="" style="endArrow=none;html=1;rounded=0;fontSize=11;" parent="1" edge="1">
          <mxGeometry width="50" height="50" relative="1" as="geometry">
            <mxPoint x="340" y="8520" as="sourcePoint" />
            <mxPoint x="390" y="8470" as="targetPoint" />
          </mxGeometry>
        </mxCell>
        <mxCell id="3KIS9S7qjUf6mMkr2eS_-273" value="" style="endArrow=none;html=1;rounded=0;fontSize=11;" parent="1" edge="1">
          <mxGeometry width="50" height="50" relative="1" as="geometry">
            <mxPoint x="340" y="8480" as="sourcePoint" />
            <mxPoint x="390" y="8520" as="targetPoint" />
          </mxGeometry>
        </mxCell>
        <mxCell id="3KIS9S7qjUf6mMkr2eS_-274" value="Netflix" style="rounded=0;whiteSpace=wrap;html=1;fillColor=#f8cecc;strokeColor=#b85450;" parent="1" vertex="1">
          <mxGeometry x="431.5" y="8690" width="120" height="60" as="geometry" />
        </mxCell>
        <mxCell id="3KIS9S7qjUf6mMkr2eS_-275" value="Maserati" style="rounded=0;whiteSpace=wrap;html=1;fillColor=#fff2cc;strokeColor=#d6b656;" parent="1" vertex="1">
          <mxGeometry x="431.5" y="8750" width="118.5" height="60" as="geometry" />
        </mxCell>
        <mxCell id="3KIS9S7qjUf6mMkr2eS_-276" value="Instagram" style="rounded=0;whiteSpace=wrap;html=1;fillColor=#f8cecc;strokeColor=#b85450;" parent="1" vertex="1">
          <mxGeometry x="431.5" y="8810" width="120" height="60" as="geometry" />
        </mxCell>
        <mxCell id="3KIS9S7qjUf6mMkr2eS_-277" value="" style="rounded=0;whiteSpace=wrap;html=1;" parent="1" vertex="1">
          <mxGeometry x="431.5" y="8990" width="120" height="60" as="geometry" />
        </mxCell>
        <mxCell id="3KIS9S7qjUf6mMkr2eS_-279" value="Elenco" style="whiteSpace=wrap;html=1;aspect=fixed;" parent="1" vertex="1">
          <mxGeometry x="95" y="8750" width="165" height="165" as="geometry" />
        </mxCell>
        <mxCell id="3KIS9S7qjUf6mMkr2eS_-280" value="Lamborghini" style="rounded=0;whiteSpace=wrap;html=1;fillColor=#fff2cc;strokeColor=#d6b656;" parent="1" vertex="1">
          <mxGeometry x="430" y="8870" width="121.5" height="60" as="geometry" />
        </mxCell>
        <mxCell id="3KIS9S7qjUf6mMkr2eS_-281" value="BMW" style="rounded=0;whiteSpace=wrap;html=1;fillColor=#dae8fc;strokeColor=#6c8ebf;" parent="1" vertex="1">
          <mxGeometry x="431.5" y="8930" width="118.5" height="60" as="geometry" />
        </mxCell>
        <mxCell id="3KIS9S7qjUf6mMkr2eS_-282" value="" style="rounded=0;whiteSpace=wrap;html=1;fillColor=#fff2cc;strokeColor=#d6b656;" parent="1" vertex="1">
          <mxGeometry x="431.5" y="9050" width="120" height="60" as="geometry" />
        </mxCell>
        <mxCell id="3KIS9S7qjUf6mMkr2eS_-283" value="0x1234" style="text;html=1;strokeColor=none;fillColor=none;align=center;verticalAlign=middle;whiteSpace=wrap;rounded=0;" parent="1" vertex="1">
          <mxGeometry x="551.5" y="8750" width="60" height="30" as="geometry" />
        </mxCell>
        <mxCell id="3KIS9S7qjUf6mMkr2eS_-284" value="0x1235" style="text;html=1;strokeColor=none;fillColor=none;align=center;verticalAlign=middle;whiteSpace=wrap;rounded=0;" parent="1" vertex="1">
          <mxGeometry x="551.5" y="8810" width="60" height="30" as="geometry" />
        </mxCell>
        <mxCell id="3KIS9S7qjUf6mMkr2eS_-285" value="0x1236" style="text;html=1;strokeColor=none;fillColor=none;align=center;verticalAlign=middle;whiteSpace=wrap;rounded=0;" parent="1" vertex="1">
          <mxGeometry x="551.5" y="8870" width="60" height="30" as="geometry" />
        </mxCell>
        <mxCell id="3KIS9S7qjUf6mMkr2eS_-286" value="0x1237" style="text;html=1;strokeColor=none;fillColor=none;align=center;verticalAlign=middle;whiteSpace=wrap;rounded=0;" parent="1" vertex="1">
          <mxGeometry x="551.5" y="8930" width="60" height="30" as="geometry" />
        </mxCell>
        <mxCell id="3KIS9S7qjUf6mMkr2eS_-287" value="0x1238" style="text;html=1;strokeColor=none;fillColor=none;align=center;verticalAlign=middle;whiteSpace=wrap;rounded=0;" parent="1" vertex="1">
          <mxGeometry x="551.5" y="8990" width="60" height="30" as="geometry" />
        </mxCell>
        <mxCell id="3KIS9S7qjUf6mMkr2eS_-288" value="0x1239" style="text;html=1;strokeColor=none;fillColor=none;align=center;verticalAlign=middle;whiteSpace=wrap;rounded=0;" parent="1" vertex="1">
          <mxGeometry x="551.5" y="9050" width="60" height="30" as="geometry" />
        </mxCell>
        <mxCell id="3KIS9S7qjUf6mMkr2eS_-289" value="0x1232" style="text;html=1;strokeColor=none;fillColor=none;align=center;verticalAlign=middle;whiteSpace=wrap;rounded=0;" parent="1" vertex="1">
          <mxGeometry x="551.5" y="8690" width="60" height="30" as="geometry" />
        </mxCell>
        <mxCell id="3KIS9S7qjUf6mMkr2eS_-296" value="FIAT" style="rounded=0;whiteSpace=wrap;html=1;fillColor=#fff2cc;strokeColor=#d6b656;" parent="1" vertex="1">
          <mxGeometry x="430" y="8990" width="121.5" height="60" as="geometry" />
        </mxCell>
        <mxCell id="3KIS9S7qjUf6mMkr2eS_-306" style="edgeStyle=orthogonalEdgeStyle;rounded=0;orthogonalLoop=1;jettySize=auto;html=1;entryX=0;entryY=0.5;entryDx=0;entryDy=0;fontSize=11;endArrow=classic;endFill=1;" parent="1" source="3KIS9S7qjUf6mMkr2eS_-301" target="3KIS9S7qjUf6mMkr2eS_-275" edge="1">
          <mxGeometry relative="1" as="geometry" />
        </mxCell>
        <mxCell id="3KIS9S7qjUf6mMkr2eS_-301" value="&lt;span style=&quot;font-size: 12px;&quot;&gt;0x1234&lt;/span&gt;" style="rounded=0;whiteSpace=wrap;html=1;fontSize=11;" parent="1" vertex="1">
          <mxGeometry x="118" y="8850" width="120" height="20" as="geometry" />
        </mxCell>
        <mxCell id="3KIS9S7qjUf6mMkr2eS_-307" style="edgeStyle=orthogonalEdgeStyle;rounded=0;orthogonalLoop=1;jettySize=auto;html=1;entryX=0;entryY=0.5;entryDx=0;entryDy=0;fontSize=11;endArrow=classic;endFill=1;" parent="1" source="3KIS9S7qjUf6mMkr2eS_-303" target="3KIS9S7qjUf6mMkr2eS_-280" edge="1">
          <mxGeometry relative="1" as="geometry" />
        </mxCell>
        <mxCell id="3KIS9S7qjUf6mMkr2eS_-303" value="&lt;span style=&quot;font-size: 12px;&quot;&gt;0x1236&lt;/span&gt;" style="rounded=0;whiteSpace=wrap;html=1;fontSize=11;" parent="1" vertex="1">
          <mxGeometry x="118" y="8870" width="120" height="20" as="geometry" />
        </mxCell>
        <mxCell id="3KIS9S7qjUf6mMkr2eS_-308" style="edgeStyle=orthogonalEdgeStyle;rounded=0;orthogonalLoop=1;jettySize=auto;html=1;entryX=0;entryY=0.5;entryDx=0;entryDy=0;fontSize=11;endArrow=classic;endFill=1;fillColor=#dae8fc;strokeColor=#6c8ebf;" parent="1" source="3KIS9S7qjUf6mMkr2eS_-304" target="3KIS9S7qjUf6mMkr2eS_-281" edge="1">
          <mxGeometry relative="1" as="geometry">
            <Array as="points">
              <mxPoint x="320" y="8900" />
              <mxPoint x="320" y="8960" />
            </Array>
          </mxGeometry>
        </mxCell>
        <mxCell id="3KIS9S7qjUf6mMkr2eS_-304" value="&lt;span style=&quot;font-size: 12px;&quot;&gt;0x1237&lt;/span&gt;" style="rounded=0;whiteSpace=wrap;html=1;fontSize=11;fillColor=#dae8fc;strokeColor=#6c8ebf;" parent="1" vertex="1">
          <mxGeometry x="118" y="8890" width="120" height="20" as="geometry" />
        </mxCell>
        <mxCell id="3KIS9S7qjUf6mMkr2eS_-309" style="edgeStyle=orthogonalEdgeStyle;rounded=0;orthogonalLoop=1;jettySize=auto;html=1;entryX=0;entryY=0.5;entryDx=0;entryDy=0;fontSize=11;endArrow=classic;endFill=1;" parent="1" source="3KIS9S7qjUf6mMkr2eS_-305" target="3KIS9S7qjUf6mMkr2eS_-296" edge="1">
          <mxGeometry relative="1" as="geometry">
            <Array as="points">
              <mxPoint x="310" y="8920" />
              <mxPoint x="310" y="9020" />
            </Array>
          </mxGeometry>
        </mxCell>
        <mxCell id="3KIS9S7qjUf6mMkr2eS_-305" value="&lt;span style=&quot;font-size: 12px;&quot;&gt;0x1238&lt;/span&gt;" style="rounded=0;whiteSpace=wrap;html=1;fontSize=11;" parent="1" vertex="1">
          <mxGeometry x="118" y="8910" width="120" height="20" as="geometry" />
        </mxCell>
        <mxCell id="3KIS9S7qjUf6mMkr2eS_-310" value="&lt;span style=&quot;font-size: 12px;&quot;&gt;0x1239&lt;/span&gt;" style="rounded=0;whiteSpace=wrap;html=1;fontSize=11;" parent="1" vertex="1">
          <mxGeometry x="117.5" y="8930" width="120" height="20" as="geometry" />
        </mxCell>
        <mxCell id="3KIS9S7qjUf6mMkr2eS_-311" style="edgeStyle=orthogonalEdgeStyle;rounded=0;orthogonalLoop=1;jettySize=auto;html=1;entryX=0.5;entryY=1;entryDx=0;entryDy=0;fontSize=11;endArrow=block;endFill=0;" parent="1" source="3KIS9S7qjUf6mMkr2eS_-312" target="3KIS9S7qjUf6mMkr2eS_-321" edge="1">
          <mxGeometry relative="1" as="geometry" />
        </mxCell>
        <mxCell id="3KIS9S7qjUf6mMkr2eS_-312" value="Studente" style="rounded=0;whiteSpace=wrap;html=1;fontSize=11;" parent="1" vertex="1">
          <mxGeometry x="324.5" y="9460" width="160" height="20" as="geometry" />
        </mxCell>
        <mxCell id="3KIS9S7qjUf6mMkr2eS_-313" value="- matricola: string?" style="rounded=0;whiteSpace=wrap;html=1;fontSize=11;align=left;" parent="1" vertex="1">
          <mxGeometry x="324.5" y="9480" width="160" height="30" as="geometry" />
        </mxCell>
        <mxCell id="3KIS9S7qjUf6mMkr2eS_-314" value="+ Studente()" style="rounded=0;whiteSpace=wrap;html=1;fontSize=11;align=left;" parent="1" vertex="1">
          <mxGeometry x="325" y="9510" width="160" height="30" as="geometry" />
        </mxCell>
        <mxCell id="3KIS9S7qjUf6mMkr2eS_-315" style="edgeStyle=orthogonalEdgeStyle;rounded=0;orthogonalLoop=1;jettySize=auto;html=1;entryX=0.5;entryY=1;entryDx=0;entryDy=0;fontSize=11;endArrow=block;endFill=0;" parent="1" source="3KIS9S7qjUf6mMkr2eS_-316" target="3KIS9S7qjUf6mMkr2eS_-321" edge="1">
          <mxGeometry relative="1" as="geometry" />
        </mxCell>
        <mxCell id="3KIS9S7qjUf6mMkr2eS_-316" value="Docente" style="rounded=0;whiteSpace=wrap;html=1;fontSize=11;" parent="1" vertex="1">
          <mxGeometry x="610" y="9460" width="160" height="20" as="geometry" />
        </mxCell>
        <mxCell id="3KIS9S7qjUf6mMkr2eS_-317" value="- dipartimento: string?&lt;br&gt;- materia: string?" style="rounded=0;whiteSpace=wrap;html=1;fontSize=11;align=left;" parent="1" vertex="1">
          <mxGeometry x="610" y="9480" width="160" height="40" as="geometry" />
        </mxCell>
        <mxCell id="3KIS9S7qjUf6mMkr2eS_-318" value="+ Docente()" style="rounded=0;whiteSpace=wrap;html=1;fontSize=11;align=left;" parent="1" vertex="1">
          <mxGeometry x="610" y="9520" width="160" height="30" as="geometry" />
        </mxCell>
        <mxCell id="3KIS9S7qjUf6mMkr2eS_-326" style="edgeStyle=orthogonalEdgeStyle;rounded=0;orthogonalLoop=1;jettySize=auto;html=1;entryX=1;entryY=0.5;entryDx=0;entryDy=0;fontSize=11;endArrow=diamondThin;endFill=0;" parent="1" source="3KIS9S7qjUf6mMkr2eS_-319" target="3KIS9S7qjUf6mMkr2eS_-324" edge="1">
          <mxGeometry relative="1" as="geometry" />
        </mxCell>
        <mxCell id="3KIS9S7qjUf6mMkr2eS_-319" value="&amp;lt;&amp;lt;abstract&amp;gt;&amp;gt;&lt;br&gt;Persona" style="rounded=0;whiteSpace=wrap;html=1;fontSize=11;" parent="1" vertex="1">
          <mxGeometry x="471" y="9290" width="160" height="30" as="geometry" />
        </mxCell>
        <mxCell id="3KIS9S7qjUf6mMkr2eS_-320" value="- nome: string?&lt;br&gt;- cognome: string?" style="rounded=0;whiteSpace=wrap;html=1;fontSize=11;align=left;" parent="1" vertex="1">
          <mxGeometry x="471" y="9320" width="160" height="40" as="geometry" />
        </mxCell>
        <mxCell id="3KIS9S7qjUf6mMkr2eS_-321" value="+ Persona()&lt;br&gt;+ stampaDettaglio()" style="rounded=0;whiteSpace=wrap;html=1;fontSize=11;align=left;" parent="1" vertex="1">
          <mxGeometry x="471" y="9360" width="160" height="40" as="geometry" />
        </mxCell>
        <mxCell id="3KIS9S7qjUf6mMkr2eS_-323" value="Universita" style="rounded=0;whiteSpace=wrap;html=1;fontSize=11;" parent="1" vertex="1">
          <mxGeometry x="110" y="9290" width="160" height="30" as="geometry" />
        </mxCell>
        <mxCell id="3KIS9S7qjUf6mMkr2eS_-324" value="- nome: string?&lt;br&gt;- elenco: [Persona]" style="rounded=0;whiteSpace=wrap;html=1;fontSize=11;align=left;" parent="1" vertex="1">
          <mxGeometry x="110" y="9320" width="160" height="40" as="geometry" />
        </mxCell>
        <mxCell id="3KIS9S7qjUf6mMkr2eS_-325" value="+ Universita()" style="rounded=0;whiteSpace=wrap;html=1;fontSize=11;align=left;" parent="1" vertex="1">
          <mxGeometry x="110" y="9360" width="160" height="40" as="geometry" />
        </mxCell>
        <mxCell id="3KIS9S7qjUf6mMkr2eS_-327" value="" style="endArrow=none;html=1;rounded=0;fontSize=11;" parent="1" edge="1">
          <mxGeometry width="50" height="50" relative="1" as="geometry">
            <mxPoint x="100" y="9470" as="sourcePoint" />
            <mxPoint x="100" y="9220" as="targetPoint" />
          </mxGeometry>
        </mxCell>
        <mxCell id="3KIS9S7qjUf6mMkr2eS_-328" value="Actor" style="shape=umlActor;verticalLabelPosition=bottom;verticalAlign=top;html=1;outlineConnect=0;fontSize=11;" parent="1" vertex="1">
          <mxGeometry x="30" y="9320" width="30" height="60" as="geometry" />
        </mxCell>
        <mxCell id="3KIS9S7qjUf6mMkr2eS_-332" value="3" style="rounded=0;whiteSpace=wrap;html=1;fontSize=11;" parent="1" vertex="1">
          <mxGeometry x="354" y="4010" width="56" height="20" as="geometry" />
        </mxCell>
        <mxCell id="3KIS9S7qjUf6mMkr2eS_-333" value="" style="shape=mxgraph.signs.transportation.car_4;html=1;pointerEvents=1;fillColor=#fff2cc;strokeColor=#d6b656;verticalLabelPosition=bottom;verticalAlign=top;align=center;" parent="1" vertex="1">
          <mxGeometry x="368" y="4170" width="33" height="30" as="geometry" />
        </mxCell>
        <mxCell id="3KIS9S7qjUf6mMkr2eS_-334" value="&amp;lt;&amp;lt;abstract&amp;gt;&amp;gt;&lt;br&gt;Giocattolo" style="rounded=0;whiteSpace=wrap;html=1;fontSize=11;" parent="1" vertex="1">
          <mxGeometry x="460" y="9920" width="120" height="60" as="geometry" />
        </mxCell>
        <mxCell id="3KIS9S7qjUf6mMkr2eS_-337" style="edgeStyle=orthogonalEdgeStyle;rounded=0;orthogonalLoop=1;jettySize=auto;html=1;entryX=0.5;entryY=1;entryDx=0;entryDy=0;fontSize=11;endArrow=block;endFill=0;" parent="1" source="3KIS9S7qjUf6mMkr2eS_-335" target="3KIS9S7qjUf6mMkr2eS_-334" edge="1">
          <mxGeometry relative="1" as="geometry" />
        </mxCell>
        <mxCell id="3KIS9S7qjUf6mMkr2eS_-335" value="Automobile" style="rounded=0;whiteSpace=wrap;html=1;fontSize=11;" parent="1" vertex="1">
          <mxGeometry x="347" y="10050" width="120" height="60" as="geometry" />
        </mxCell>
        <mxCell id="3KIS9S7qjUf6mMkr2eS_-338" style="edgeStyle=orthogonalEdgeStyle;rounded=0;orthogonalLoop=1;jettySize=auto;html=1;entryX=0.5;entryY=1;entryDx=0;entryDy=0;fontSize=11;endArrow=block;endFill=0;" parent="1" source="3KIS9S7qjUf6mMkr2eS_-336" target="3KIS9S7qjUf6mMkr2eS_-334" edge="1">
          <mxGeometry relative="1" as="geometry" />
        </mxCell>
        <mxCell id="3KIS9S7qjUf6mMkr2eS_-336" value="Trenino" style="rounded=0;whiteSpace=wrap;html=1;fontSize=11;" parent="1" vertex="1">
          <mxGeometry x="566" y="10050" width="120" height="60" as="geometry" />
        </mxCell>
      </root>
    </mxGraphModel>
  </diagram>
</mxfile>
